<?xml version="1.0" standalone="no"?>
<!DOCTYPE svg PUBLIC "-//W3C//DTD SVG 1.1//EN" "http://www.w3.org/Graphics/SVG/1.1/DTD/svg11.dtd" >
<svg xmlns="http://www.w3.org/2000/svg" xmlns:xlink="http://www.w3.org/1999/xlink" version="1.1">
<metadata>
Created by FontForge 20150102 at Sat Feb 14 14:40:42 2015
 By uniteet7
Bicycle by J.F.Y.Daniel Gauthier - GautFonts
</metadata>
<defs>
<font id="Bicycle" horiz-adv-x="440" >
  <font-face 
    font-family="Bicycle"
    font-weight="400"
    font-stretch="normal"
    units-per-em="1000"
    panose-1="0 0 4 0 0 0 0 0 0 0"
    ascent="800"
    descent="-200"
    x-height="800"
    cap-height="800"
    bbox="-12 -237 3525 802"
    underline-thickness="20"
    underline-position="-123"
    unicode-range="U+0008-02DD"
  />
<missing-glyph horiz-adv-x="500" 
d="M63 0v800h375v-800h-375zM125 63h250v675h-250v-675z" />
    <glyph glyph-name=".notdef" horiz-adv-x="500" 
d="M63 0v800h375v-800h-375zM125 63h250v675h-250v-675z" />
    <glyph glyph-name=".null" horiz-adv-x="0" 
 />
    <glyph glyph-name="uni000D" unicode="&#xd;" horiz-adv-x="175" 
 />
    <glyph glyph-name="uni0008" horiz-adv-x="0" 
 />
    <glyph glyph-name="uni0008" unicode="&#x2400;" horiz-adv-x="0" 
 />
    <glyph glyph-name="uni0008" horiz-adv-x="0" 
 />
    <glyph glyph-name="uni0009" unicode="&#x9;" horiz-adv-x="175" 
 />
    <glyph glyph-name="uni0009" unicode=" " horiz-adv-x="175" 
 />
    <glyph glyph-name="exclam" unicode="!" horiz-adv-x="256" 
d="M253 -44q-45 10 -52 43v757q6 11 14 19q18 20 38 25h-265q35 -8 50 -36v-772q-5 -8 -11 -15q-15 -16 -39 -21h50v-7v0q-15 -24 -15 -52q0 -40 28.5 -68.5t68.5 -28.5t68.5 28.5t28.5 68.5q0 30 -16 54v5h52zM90 751h59v-750h-59v750zM120 -148q-19 0 -32 13t-13 32t13 32
t32 13t32 -13t13 -32t-13 -32t-32 -13z" />
    <glyph glyph-name="ampersand" unicode="&#x26;" horiz-adv-x="409" 
d="M189 540h174q11 -3 19 -9q20 -14 27 -43l-2 214h-95v48q1 12 7 21q14 22 45 29h-269q49 -11 53 -53h2v-50q-62 -16 -103 -63q-47 -53 -47 -128v-82q0 -64 39 -116q-39 -52 -39 -116v-82q0 -75 47 -128q41 -47 103 -63v-66h-2q-1 -12 -7 -22q-13 -23 -46 -31h269
q-46 11 -52 50v65h95l2 213q-11 -45 -45 -52h-175q-27 8 -27 34v82q0 26 27 34h73q11 -2 20 -8q22 -14 29 -45v266q-8 -34 -34 -49h-88q-27 8 -27 34v82q0 26 27 34zM181 339h80v-62h-80q-71 -16 -71 -85v-82q0 -69 71 -85h175v-59h-96v-109h-59v109h-26h-2q-43 9 -77 39
q-45 41 -45 105v82q0 74 59 116q-59 42 -59 116v82q0 64 45 105q34 31 77 39h2h26v97h59v-97h96v-59h-175q-71 -16 -71 -85v-82q0 -69 71 -85z" />
    <glyph glyph-name="quotesingle" unicode="'" horiz-adv-x="205" 
d="M96 802q-40 0 -68.5 -28.5t-28.5 -69.5q0 -36 24.5 -63.5t60.5 -32.5l26 -41q1 0 3 1v0v1q80 49 80 135q0 41 -28.5 69.5t-68.5 28.5zM84 611q14 12 14 32q0 8 -2 16q-19 0 -32 13.5t-13 31.5q0 19 13 32.5t32 13.5t32 -13.5t13 -32.5q-1 -18 -7 -33q-14 -39 -50 -60z
" />
    <glyph glyph-name="comma" unicode="," horiz-adv-x="205" 
d="M96 -2q-40 0 -68.5 -28.5t-28.5 -68.5q0 -37 24.5 -64.5t60.5 -31.5l26 -42q1 0 3 2v-1v1q80 49 80 136q0 40 -28.5 68.5t-68.5 28.5zM84 -192q14 11 14 31q0 8 -2 16q-19 0 -32 13.5t-13 32.5q0 18 13 31.5t32 13.5t32 -13.5t13 -31.5q-1 -18 -7 -34q-14 -38 -50 -59z
" />
    <glyph glyph-name="hyphen" unicode="-" horiz-adv-x="326" 
d="M294 387h-294v-163h292zM52 276v59h190v-59h-190z" />
    <glyph glyph-name="hyphen" unicode="&#x2010;" horiz-adv-x="326" 
d="M294 387h-294v-163h292zM52 276v59h190v-59h-190z" />
    <glyph glyph-name="hyphen" unicode="&#xad;" horiz-adv-x="326" 
d="M294 387h-294v-163h292zM52 276v59h190v-59h-190z" />
    <glyph glyph-name="period" unicode="." horiz-adv-x="193" 
d="M90 -2q-40 0 -68.5 -28.5t-28.5 -68.5q0 -41 28.5 -69.5t68.5 -28.5t68.5 28.5t28.5 69.5q0 40 -28.5 68.5t-68.5 28.5zM90 -145q-19 0 -32 13.5t-13 32.5q0 18 13 31.5t32 13.5t32 -13.5t13 -31.5q0 -19 -13 -32.5t-32 -13.5z" />
    <glyph glyph-name="zero" unicode="0" horiz-adv-x="516" 
d="M341 800h-3h-163q-61 -12 -110 -56q-65 -60 -65 -153v-583q0 -87 82 -154q42 -35 86 -52l173 -2q61 11 110 56q65 59 65 152v583q0 93 -65 153q-49 45 -110 56zM464 8q0 -70 -49 -115q-37 -34 -84 -42l-144 -1q-126 49 -135 158v583q0 70 49 115q37 34 83 43h147
q47 -9 84 -43q49 -45 49 -115v-583zM323 690h-130q-82 -18 -82 -99v-583q0 -80 82 -98h130q82 18 82 98v583q0 81 -82 99zM353 8q0 -37 -37 -47h-116q-37 10 -37 47v583q0 37 37 47h116q37 -10 37 -47v-583z" />
    <glyph glyph-name="one" unicode="1" horiz-adv-x="305" 
d="M252 -147v0l-1 947h-251l1 -216q10 43 46 52h41l3 -791q-6 -11 -13 -20q-17 -20 -39 -25h266q-49 11 -53 53zM197 -149h-56l-1 837h-88v64l147 -2z" />
    <glyph glyph-name="two" unicode="2" horiz-adv-x="484" 
d="M310 799l-286 1l1 -282q17 110 119 118v1l140 1q38 -10 38 -47v-155q0 -39 -40 -48q-16 7 -104 -9l-3 -1q-62 -11 -110 -56q-65 -59 -65 -151l2 -371h469v206q-6 -27 -26 -44h-282l-1 209q0 38 41 47q15 -6 103 10h4q61 11 110 56q64 60 64 152v155q0 93 -64 152
q-49 45 -110 56zM433 436q0 -70 -49 -115q-37 -33 -84 -42h-1l-105 -10q-25 -5 -46 -20q-37 -28 -37 -78l1 -260h307v-59h-366l-1 319q-1 69 48 114q37 34 84 42l1 1l105 9q25 5 46 21q38 28 38 78v155q0 81 -82 98h-216v59h224q47 -9 84 -42q49 -45 49 -115v-155z" />
    <glyph glyph-name="three" unicode="3" 
d="M265 799l-7 1h-258l1 -283q16 110 119 119l-1 1h121q38 -10 38 -47v-155q0 -37 -38 -47h-101q-7 5 -13 11q-15 15 -20 37v-267q12 50 53 53v0h81q38 -10 38 -46v-166q0 -37 -38 -47l-121 1l1 1q-30 3 -53 15q-55 30 -66 104l-1 -284l265 1q61 11 111 56q64 60 64 153v166
q0 73 -45 129q45 57 45 130v155q0 93 -64 153q-49 44 -111 56zM389 435q0 -83 -68 -130q68 -46 68 -129v-166q0 -71 -50 -116q-37 -34 -83 -42h-3h-201v59h195q82 18 82 99v166q0 80 -82 98h-89v62h89q82 18 82 99v155q0 81 -82 99h-195v59h204q47 -9 83 -43q50 -45 50 -115
v-155z" />
    <glyph glyph-name="four" unicode="4" horiz-adv-x="607" 
d="M417 182v443l-238 -443h238zM366 233h-101l101 188v-188zM528 755q2 10 8 19q15 19 44 26l-195 -2l-385 -724l366 -2v-219h-2q-1 -13 -6 -22q-13 -23 -46 -31h267q-43 10 -51 42v230h26q12 -2 21 -7q23 -13 31 -46l1 214h-79v522zM555 182v-59h-79v-269h-59v269l-332 2
l332 624l59 -1v-566h79z" />
    <glyph glyph-name="five" unicode="5" horiz-adv-x="481" 
d="M306 384l-4 1h-139q0 -1 1 126q0 127 0 126h242v-1q12 -1 21 -6q24 -13 31 -46l2 216h-458l-2 -577l281 -1q38 -10 38 -46v-166q0 -37 -38 -47l-162 1v1q-30 3 -52 15q-55 30 -67 104v-284l306 1q61 11 111 56q64 60 64 153v166q0 92 -65 152q-48 44 -110 56zM430 10
q0 -71 -50 -116q-37 -34 -83 -42h-3h-242v59h236q82 18 82 99v166q0 80 -82 98l-236 1l2 473h355v-59h-296l-2 -356h186q47 -9 83 -42q50 -45 50 -115v-166z" />
    <glyph glyph-name="six" unicode="6" horiz-adv-x="535" 
d="M366 382l-9 3l-182 -1l-12 -3v210q0 36 38 47h195v-1q30 -2 53 -14q55 -30 66 -105l-2 282l-338 -1q-61 -11 -110 -56q-65 -59 -65 -152v-582q0 -93 65 -152q49 -45 110 -56l5 -1l179 1q62 11 111 56q65 59 65 152v167q0 87 -82 154q-42 34 -87 52zM483 9q0 -70 -49 -115
q-37 -34 -84 -42h-165q-47 8 -84 42q-49 45 -49 115v582q0 70 49 115q37 34 84 42h276v-59h-268q-82 -18 -82 -98v-292q34 27 74 34h162q126 -48 136 -157v-167zM341 274h-148q-82 -18 -82 -98v-167q0 -80 82 -98h149q82 18 82 98v167q0 80 -83 98zM372 9q0 -37 -38 -47
h-133q-38 10 -38 47v167q0 36 38 46h133q38 -10 38 -46v-167z" />
    <glyph glyph-name="seven" unicode="7" horiz-adv-x="480" 
d="M1 800l-1 -214q11 48 52 52h220l-200 -786l-3 1q-1 -13 -6 -22q-13 -23 -46 -31h270q-49 11 -53 53v0l246 947h-479zM181 -149h-56l213 839h-286v59h361z" />
    <glyph glyph-name="eight" unicode="8" horiz-adv-x="545" 
d="M524 435v156q0 93 -65 152q-49 45 -110 56l-5 1l-147 -1q-62 -11 -111 -56q-65 -59 -65 -152v-156q0 -66 35 -116q-56 -59 -56 -143v-167q0 -93 65 -152q49 -45 110 -56l5 -1l190 1q62 11 111 56q64 59 64 152v167q0 84 -55 143q34 50 34 116zM494 176v-167
q0 -70 -50 -115q-37 -34 -83 -42h-176q-47 8 -84 42q-49 45 -49 115v167q0 91 79 137q-58 46 -58 122v156q0 70 49 115q37 34 84 42h133q47 -8 84 -42q49 -45 49 -115v-156q0 -76 -58 -122q80 -46 80 -137zM352 274h-159q-82 -18 -82 -98v-167q0 -80 82 -98h159q82 18 82 98
v167q0 80 -82 98zM383 9q0 -37 -38 -47h-144q-38 10 -38 47v167q0 36 38 46h144q38 -10 38 -46v-167zM215 336h116q82 18 82 99v156q0 80 -82 98h-116q-83 -18 -83 -98v-156q0 -81 83 -99zM184 591q0 37 38 47h101q38 -10 38 -47v-156q0 -37 -38 -47h-101q-38 10 -38 47v156
z" />
    <glyph glyph-name="nine" unicode="9" horiz-adv-x="524" 
d="M331 689h-138q-82 -18 -82 -99v-166q0 -80 82 -98h138q82 18 82 98v166q0 81 -82 99zM361 424q0 -36 -38 -46h-122q-38 10 -38 46v166q0 37 38 47h122q38 -10 38 -47v-166zM343 800h-3h-4l-161 -1q-61 -12 -110 -56q-65 -60 -65 -153v-166q0 -92 65 -152q48 -44 110 -56
h3l4 -1l166 1q1 0 13 3v-209q0 -37 -38 -47h-122q-38 10 -38 47v9q5 11 13 20q17 20 39 25l-215 -3v-51q0 -93 65 -153q49 -45 110 -56l8 -1l165 1q62 11 111 56q65 60 65 153v580q0 97 -67 156q-50 45 -114 54zM472 10q0 -71 -49 -116q-37 -34 -84 -42h-2h-152
q-47 8 -84 42q-49 45 -49 116h59q0 -81 82 -99h138q82 18 82 99v291q-34 -26 -74 -34h-2h-152q-47 9 -84 42q-49 45 -49 115v166q0 70 49 115q37 34 84 43h152q126 -17 135 -158v-580z" />
    <glyph glyph-name="question" unicode="?" horiz-adv-x="483" 
d="M305 799l-7 1h-301v-163v0v-117q15 93 96 117h187q38 -10 38 -47v-156q0 -38 -43 -48l-45 -11l2 1q-61 -11 -109 -56q-65 -59 -65 -152v-159h-1q-1 -12 -7 -22q-13 -24 -46 -31h60q-20 -27 -20 -59q0 -40 28.5 -68.5t68.5 -28.5t68.5 28.5t28.5 68.5q0 32 -20 59h56
q-45 10 -53 47v165q0 38 43 48l45 10h-2q61 11 109 56q65 59 65 152v156q0 93 -65 153q-49 44 -111 56zM141 -148q-19 0 -32 13t-13 32t13 32t32 13t32 -13t13 -32t-13 -32t-32 -13zM429 434q0 -70 -49 -115q-36 -33 -83 -42q-39 -8 -43 -10q-85 -20 -85 -99v-156h-59v156
q0 69 49 114q36 33 83 43q39 8 43 10q85 19 85 99v156q0 81 -83 99h-238v59h247q47 -9 84 -43q49 -45 49 -115v-156z" />
    <glyph glyph-name="A" unicode="A" horiz-adv-x="696" 
d="M636 -166l-203 913v0q-2 32 53 53h-270q55 -14 53 -52l-208 -911q-7 -7 -16 -14q-20 -16 -45 -23h284q-56 23 -53 53v0l43 188h150l42 -188h-1q3 -30 -53 -53h284q-50 14 -60 34zM519 -147l-54 240h-232l-55 -240h-61l205 896h58l199 -896h-60zM246 152h206l-102 454z
M311 204l39 168l37 -168h-76z" />
    <glyph glyph-name="B" unicode="B" horiz-adv-x="512" 
d="M319 275h-155v-363h155q82 18 82 98v167q0 80 -82 98zM350 10q0 -36 -38 -46h-97v260h97q38 -11 38 -47v-167zM319 689h-155v-355h155q82 18 82 99v157q0 81 -82 99zM350 433q0 -37 -38 -47h-97v251h97q38 -10 38 -47v-157zM337 799l-7 1h-5l-272 -1v0h-53q49 -22 53 -52
v-893q-1 -9 -7 -18q-13 -20 -46 -35h53v-1l284 3q62 11 110 55q65 60 65 152v167q0 72 -44 128q44 56 44 128v157q0 93 -65 153q-48 45 -110 56zM460 433q0 -82 -65 -128q65 -47 65 -128v-167q0 -70 -49 -114q-36 -34 -83 -43h-3l-221 -1v896h224q46 -8 83 -42
q49 -46 49 -116v-157z" />
    <glyph glyph-name="C" unicode="C" 
d="M440 518l-1 282l-264 -1q-62 -12 -110 -56q-65 -60 -65 -152v-582q0 -92 65 -152q48 -44 110 -56h4l260 -1l1 279q-22 -108 -97 -117h-143q-38 11 -38 47v582q0 37 38 47h121v-1q30 -3 53 -15q55 -30 66 -104zM193 689q-82 -18 -82 -98v-582q0 -80 82 -98h195v-59h-204
q-46 9 -83 42q-49 45 -49 115v582q0 70 49 115q37 33 83 42h3h201v-59h-195z" />
    <glyph glyph-name="D" unicode="D" horiz-adv-x="522" 
d="M329 686h-164v-776h164q83 18 83 99v579q0 80 -83 98zM360 9q0 -37 -38 -47h-105v673h105q38 -10 38 -47v-579zM347 800l-347 -1q49 -11 53 -53h1v-893h-1q-1 -12 -7 -22q-13 -23 -46 -31h347q62 11 111 56q64 60 64 153v579q0 93 -65 154q-49 47 -110 58zM471 9
q0 -71 -49 -115q-37 -34 -84 -43h-232v897l232 -3q47 -8 84 -42q49 -45 49 -115v-579z" />
    <glyph glyph-name="E" unicode="E" horiz-adv-x="467" 
d="M0 -199l466 -1l1 214q-10 -43 -42 -51h-211v258h94q10 -7 18 -15q20 -18 24 -36v264q-9 -37 -38 -50h-98v251h200v0q12 -1 22 -7q23 -13 31 -46l-1 218h-466q45 -11 52 -44v-911q-6 -11 -14 -19q-17 -20 -38 -25zM104 748h311v-61h-252v-355h135v-59h-135v-362h252v-59
h-256v0h-55v896z" />
    <glyph glyph-name="F" unicode="F" horiz-adv-x="471" 
d="M469 800h-469q49 -12 53 -53h1v-894h-1q-1 -12 -7 -22q-13 -23 -46 -31h265q-33 8 -48 33v388h95q10 -8 18 -15q20 -19 24 -37v265q-8 -37 -38 -51h-99v252h201v0q12 -1 22 -7q23 -13 31 -46zM417 687h-252v-355h135v-60h-135v-421h-59v897h311v-61z" />
    <glyph glyph-name="G" unicode="G" horiz-adv-x="521" 
d="M521 387l-293 1l1 -217q11 49 53 53v1h25v-261h-107q-37 10 -37 47v579q0 36 37 46h120q30 -2 53 -15q54 -30 66 -103l-1 282l-263 -2q-61 -12 -110 -56q-65 -60 -65 -152v-579q0 -93 65 -152q49 -45 110 -56l346 -3q-45 10 -52 44v498q6 11 13 20q18 20 39 25zM418 -147
l-234 1q-46 8 -83 42q-49 45 -49 115v579q0 70 49 114q37 34 83 43h3h201v-59h-195q-82 -18 -82 -98v-579q0 -81 82 -99h166v365h-79v59h138v-483z" />
    <glyph glyph-name="H" unicode="H" horiz-adv-x="604" 
d="M551 747q1 12 6 22q14 23 47 31h-270q49 -11 53 -53h1v-521h-172v521v0q1 12 7 22q13 23 46 31h-269q48 -11 53 -51v-898q-2 -12 -7 -21q-14 -23 -46 -30h269q-49 11 -53 53v0v210h172v-210q-2 -12 -7 -21q-14 -23 -49 -32h269q-41 10 -51 41v906h1zM499 -149h-60v264
h-275v-264h-59v898h59v-575h275v575h60v-898z" />
    <glyph glyph-name="I" unicode="I" horiz-adv-x="269" 
d="M269 800h-269q49 -11 53 -53h1v-894h-1q-1 -12 -7 -22q-13 -23 -46 -31h269q-43 10 -52 45v910q2 10 8 18q15 20 44 27zM165 -147h-59v896h59v-896z" />
    <glyph glyph-name="J" unicode="J" horiz-adv-x="568" 
d="M352 747v0v0h1v-737q0 -37 -37 -47h-115q-38 10 -38 47v138v0q1 12 7 22q13 23 46 31l-216 -2v-189q0 -93 65 -153q49 -44 110 -56l8 -1l158 1q62 12 110 56q65 60 65 153v746q6 11 14 19q17 20 38 25h-269q49 -11 53 -53zM405 10v728h59v-728q0 -70 -49 -115
q-37 -34 -83 -43h-3h-144q-47 9 -84 43q-49 45 -49 115v138h59v-138q0 -81 82 -99h130q82 18 82 99z" />
    <glyph glyph-name="K" unicode="K" horiz-adv-x="580" 
d="M534 -158q-106 218 -228 470l217 435q6 11 14 21q18 23 39 32h-287q55 -12 55 -41q0 -6 -3 -11l-125 -252v251v0q1 12 7 22q13 23 46 31h-269q49 -11 53 -53v0v-905q-7 -10 -15 -18q-18 -20 -36 -24h269q-49 11 -53 53l-2 271l131 -272q4 -6 4 -14q0 -28 -57 -38h286
q-11 5 -19 12q-20 14 -27 30zM404 -147l-189 392l-51 -101v-291h-59v896h59v-473l235 470h66l-217 -434l223 -459h-67z" />
    <glyph glyph-name="L" unicode="L" horiz-adv-x="470" 
d="M0 -200l470 1l-1 216q-11 -50 -53 -53v-1h-199v785q1 10 7 19q12 21 43 33h-265q49 -11 53 -52l-2 -895q-1 -12 -7 -22q-13 -23 -46 -31zM107 749h59v-837h252v-59h-311v896z" />
    <glyph glyph-name="M" unicode="M" horiz-adv-x="641" 
d="M588 747q1 12 7 22q13 23 46 31h-275q59 -11 53 -53h1l-101 -381l-101 381h1q-7 40 53 53h-272q46 -10 52 -45v-912q-7 -11 -14 -19q-19 -20 -38 -24h640q-49 11 -53 53v0v894h1zM253 -195q-38 17 -38 48v0v274l73 -274h-1q2 -5 2 -10q0 -24 -36 -38zM424 -147v0
q0 -31 -38 -47q-37 14 -37 36q0 5 2 11v0l73 274v-274zM535 -147h-59v670q-27 -103 -128 -481l-29 -107l-156 588v-670h-59v896h60l156 -585l154 585h61v-896z" />
    <glyph glyph-name="N" unicode="N" horiz-adv-x="528" 
d="M475 746q2 12 7 22q13 23 46 31h-268q46 -11 53 -49v-325l-109 375l-204 -1q49 -11 53 -53h1v-893h-1q-1 -12 -7 -22q-13 -23 -46 -31h267q-42 10 -51 41v337l110 -377l201 -1q-43 10 -52 46v900v0zM423 -147h-58l-201 687v-687h-59v895h60l199 -687v687h59v-895z" />
    <glyph glyph-name="O" unicode="O" horiz-adv-x="518" 
d="M324 689h-130q-83 -18 -83 -99v-580q0 -81 83 -99h130q82 18 82 99v580q0 81 -82 99zM355 10q0 -37 -38 -47h-116q-38 10 -38 47v580q0 37 38 47h116q38 -10 38 -47v-580zM342 -199q62 12 111 56q65 60 65 153v580q0 93 -65 153q-49 44 -111 56l-7 1l-159 -1
q-62 -12 -111 -56q-65 -60 -65 -153v-580q0 -93 65 -153q49 -44 111 -56l7 -1zM330 -148h-145q-47 9 -84 43q-49 45 -49 115v580q0 70 49 115q37 34 84 43h3h145q46 -9 83 -43q50 -45 50 -115v-580q0 -70 -50 -115q-37 -34 -83 -43h-3z" />
    <glyph glyph-name="P" unicode="P" horiz-adv-x="514" 
d="M332 225l7 1q62 11 110 56q65 59 65 152v155q0 93 -65 152q-48 45 -110 56l-4 1l-335 2q49 -11 53 -53h1v-894h-1q-1 -12 -7 -22q-13 -23 -46 -31h270q-49 11 -53 53v0v372h115zM165 276v-423h-59v896l224 -3q47 -8 83 -42q50 -45 50 -115v-155q0 -70 -50 -115
q-37 -34 -83 -42l-3 -1h-162zM403 434v155q0 81 -82 99h-156v-352h156q82 17 82 98zM352 434q0 -37 -38 -47h-97v249h97q38 -10 38 -47v-155z" />
    <glyph glyph-name="Q" unicode="Q" horiz-adv-x="566" 
d="M323 690h-130q-82 -18 -82 -99v-580q0 -81 82 -99h130q46 10 68 46l-98 137l74 -2l39 -54v552q0 81 -83 99zM354 138l-180 -1q25 -6 43 -25l105 -146l-6 -2h-115q-38 10 -38 47v580q0 37 38 47h115q38 -10 38 -47v-453zM371 -200h294q-30 7 -47 30h-1l-103 147q3 18 3 34
v580q0 93 -65 152q-49 45 -111 57h-2h-164q-61 -12 -110 -56q-65 -60 -65 -153v-580q0 -93 65 -152q48 -45 110 -57h3l5 -1l158 1q39 7 76 31l1 -2q-4 -7 -11 -12q-15 -14 -36 -19zM332 -147h-3h-144q-47 9 -84 43q-49 45 -49 115v580q0 70 49 115q37 34 84 43h2h145
q47 -9 84 -43q49 -45 49 -115v-580q0 -23 -6 -46l79 -116h-69l-42 59q-38 -44 -95 -55z" />
    <glyph glyph-name="R" unicode="R" horiz-adv-x="600" 
d="M404 434v155q0 81 -82 99h-156v-352h156q82 17 82 98zM353 434q0 -37 -38 -47h-97v249h97q38 -10 38 -47v-155zM299 -200h301q-20 4 -36 12q-36 18 -43 48l-127 384q121 59 121 190v155q0 93 -65 152q-48 45 -110 56l-4 1l-336 2q49 -11 53 -53h2v-894v0q-1 -12 -6 -22
q-14 -23 -47 -31h270q-49 11 -53 53h-1v372h12l122 -372v0q-2 -12 -7 -22q-13 -23 -46 -31zM267 276h-101v-423h-59v896l224 -3q46 -8 83 -42q49 -45 49 -115v-155q0 -70 -49 -115q-37 -34 -83 -42h-2l140 -424h-63z" />
    <glyph glyph-name="S" unicode="S" horiz-adv-x="488" 
d="M33 85l1 -284l278 -1q62 11 111 56q65 60 65 153v157q0 93 -65 153q-49 44 -111 56h-2l-4 1q-87 11 -102 9q-40 9 -40 48v156q0 37 38 47h163v-1q30 -2 53 -15q56 -30 67 -104l1 284l-310 -1q-62 -12 -111 -57q-65 -59 -65 -153v-156q0 -93 65 -153q49 -45 111 -56l2 -1
h4q87 -11 102 -9q41 -10 41 -48v-157q0 -37 -38 -47l-139 2v1q-30 3 -52 15q-55 30 -63 105zM294 -90q83 18 83 99v157q0 50 -38 78q-21 16 -46 21q-2 0 -106 10h-1q-47 9 -85 42q-49 46 -49 116v156q0 71 49 116q38 34 85 42l2 1h246v-60h-240q-82 -18 -82 -99v-156
q0 -50 37 -79q21 -15 46 -20q2 0 106 -10h2q47 -9 84 -43q49 -45 49 -115v-157q0 -70 -49 -115q-38 -35 -84 -43h-3h-219v59h213z" />
    <glyph glyph-name="T" unicode="T" horiz-adv-x="435" 
d="M431 510l4 290h-433l-2 -290q17 111 119 119v1h22v-792q-18 -17 -51 -38h267q-49 11 -53 53v0v777h8v-1q30 -2 52 -15q55 -29 67 -104zM252 689v-836h-59v836h-139v59h325v-59h-127z" />
    <glyph glyph-name="U" unicode="U" horiz-adv-x="595" 
d="M333 800q49 -11 53 -53v-737q0 -37 -38 -47h-94q-38 10 -38 47v744q3 11 9 19q14 20 44 27h-269q49 -11 53 -53h1v-737q0 -93 65 -153q48 -44 110 -56h2l5 -1h130l7 1q62 12 111 56q64 60 64 153v737h1q0 36 46 51q-2 1 -6 2h-256zM497 10q0 -70 -49 -115
q-37 -34 -84 -43h-3h-123q-47 9 -83 43q-50 45 -50 115v737h60v-737q0 -81 82 -99h108q83 18 83 99v737h59v-737z" />
    <glyph glyph-name="V" unicode="V" horiz-adv-x="671" 
d="M450 752l-120 -526l-116 521q1 12 7 22q13 23 46 31h-261q-2 -1 -6 -2q35 -12 44 -37l203 -908v0q-1 -12 -7 -22q-13 -23 -46 -31h270q-49 11 -53 52l205 895h2q1 12 7 22q13 23 46 31h-273q45 -10 52 -48zM563 748l-205 -896h-58l-200 896l59 1l170 -757l174 757z" />
    <glyph glyph-name="W" unicode="W" horiz-adv-x="921" 
d="M701 747h3l-72 -533l-165 494l-173 -504l-76 543h2q2 12 7 22q13 23 46 31h-273q49 -11 53 -53h1l125 -894h-2q-1 -12 -7 -22q-13 -23 -46 -31h270q-44 10 -52 43l123 358l118 -352q-2 -11 -8 -20q-14 -22 -45 -29h270q-47 11 -52 51l120 896v0q1 12 7 22q13 23 46 31
h-273q49 -11 53 -53zM816 749l-120 -896h-60l-170 509l-175 -509h-60l-125 895l59 1l108 -767l193 565l188 -561l102 763h60z" />
    <glyph glyph-name="X" unicode="X" horiz-adv-x="635" 
d="M588 -170l-184 472l178 458l2 1q17 18 51 39h-286q49 -11 53 -53h1l-86 -222l-86 222h2q1 12 6 22q13 23 46 31h-285q29 -7 46 -29l1 -1l183 -471l-177 -460v0q-16 -18 -51 -39h281q-49 11 -53 53l87 224l88 -225q-2 -12 -7 -22q-14 -23 -46 -30h283q-31 7 -47 30z
M459 -146l-142 366l-142 -366h-61l172 445l-176 450h65l143 -367l141 367h63l-173 -447l173 -448h-63z" />
    <glyph glyph-name="Y" unicode="Y" horiz-adv-x="688" 
d="M405 800q49 -11 53 -53h1l-116 -289l-113 290q1 12 7 22q13 23 46 30h-283q31 -7 47 -32l214 -548v-367v0q-1 -12 -7 -22q-13 -23 -46 -31h268q-45 10 -52 44v377l220 553q8 10 44 26h-283zM372 230v-377h-59v377l-203 519h64l169 -433q40 101 172 433h64z" />
    <glyph glyph-name="Z" unicode="Z" horiz-adv-x="562" 
d="M50 800l-1 -282q17 108 116 118h157l-322 -836h502l1 279q-22 -108 -98 -117h-167l324 837zM448 -90v-59l-373 1l322 836h-294v59h384l-325 -837h286z" />
    <glyph glyph-name="a" unicode="a" horiz-adv-x="696" 
d="M636 -166l-203 913v0q-2 32 53 53h-270q55 -14 53 -52l-208 -911q-7 -7 -16 -14q-20 -16 -45 -23h284q-56 23 -53 53v0l43 188h150l42 -188h-1q3 -30 -53 -53h284q-50 14 -60 34zM519 -147l-54 240h-232l-55 -240h-61l205 896h58l199 -896h-60zM246 152h206l-102 454z
M311 204l39 168l37 -168h-76z" />
    <glyph glyph-name="b" unicode="b" horiz-adv-x="512" 
d="M319 275h-155v-363h155q82 18 82 98v167q0 80 -82 98zM350 10q0 -36 -38 -46h-97v260h97q38 -11 38 -47v-167zM319 689h-155v-355h155q82 18 82 99v157q0 81 -82 99zM350 433q0 -37 -38 -47h-97v251h97q38 -10 38 -47v-157zM337 799l-7 1h-5l-272 -1v0h-53q49 -22 53 -52
v-893q-1 -9 -7 -18q-13 -20 -46 -35h53v-1l284 3q62 11 110 55q65 60 65 152v167q0 72 -44 128q44 56 44 128v157q0 93 -65 153q-48 45 -110 56zM460 433q0 -82 -65 -128q65 -47 65 -128v-167q0 -70 -49 -114q-36 -34 -83 -43h-3l-221 -1v896h224q46 -8 83 -42
q49 -46 49 -116v-157z" />
    <glyph glyph-name="c" unicode="c" 
d="M440 518l-1 282l-264 -1q-62 -12 -110 -56q-65 -60 -65 -152v-582q0 -92 65 -152q48 -44 110 -56h4l260 -1l1 279q-22 -108 -97 -117h-143q-38 11 -38 47v582q0 37 38 47h121v-1q30 -3 53 -15q55 -30 66 -104zM193 689q-82 -18 -82 -98v-582q0 -80 82 -98h195v-59h-204
q-46 9 -83 42q-49 45 -49 115v582q0 70 49 115q37 33 83 42h3h201v-59h-195z" />
    <glyph glyph-name="d" unicode="d" horiz-adv-x="522" 
d="M329 686h-164v-776h164q83 18 83 99v579q0 80 -83 98zM360 9q0 -37 -38 -47h-105v673h105q38 -10 38 -47v-579zM347 800l-347 -1q49 -11 53 -53h1v-893h-1q-1 -12 -7 -22q-13 -23 -46 -31h347q62 11 111 56q64 60 64 153v579q0 93 -65 154q-49 47 -110 58zM471 9
q0 -71 -49 -115q-37 -34 -84 -43h-232v897l232 -3q47 -8 84 -42q49 -45 49 -115v-579z" />
    <glyph glyph-name="e" unicode="e" horiz-adv-x="467" 
d="M0 -199l466 -1l1 214q-10 -43 -42 -51h-211v258h94q10 -7 18 -15q20 -18 24 -36v264q-9 -37 -38 -50h-98v251h200v0q12 -1 22 -7q23 -13 31 -46l-1 218h-466q45 -11 52 -44v-911q-6 -11 -14 -19q-17 -20 -38 -25zM104 748h311v-61h-252v-355h135v-59h-135v-362h252v-59
h-256v0h-55v896z" />
    <glyph glyph-name="f" unicode="f" horiz-adv-x="471" 
d="M469 800h-469q49 -12 53 -53h1v-894h-1q-1 -12 -7 -22q-13 -23 -46 -31h265q-33 8 -48 33v388h95q10 -8 18 -15q20 -19 24 -37v265q-8 -37 -38 -51h-99v252h201v0q12 -1 22 -7q23 -13 31 -46zM417 687h-252v-355h135v-60h-135v-421h-59v897h311v-61z" />
    <glyph glyph-name="g" unicode="g" horiz-adv-x="521" 
d="M521 387l-293 1l1 -217q11 49 53 53v1h25v-261h-107q-37 10 -37 47v579q0 36 37 46h120q30 -2 53 -15q54 -30 66 -103l-1 282l-263 -2q-61 -12 -110 -56q-65 -60 -65 -152v-579q0 -93 65 -152q49 -45 110 -56l346 -3q-45 10 -52 44v498q6 11 13 20q18 20 39 25zM418 -147
l-234 1q-46 8 -83 42q-49 45 -49 115v579q0 70 49 114q37 34 83 43h3h201v-59h-195q-82 -18 -82 -98v-579q0 -81 82 -99h166v365h-79v59h138v-483z" />
    <glyph glyph-name="h" unicode="h" horiz-adv-x="603" 
d="M387 -147q-1 -12 -6 -22q-14 -23 -47 -31h269q-49 11 -53 53v0v894v0q1 12 7 22q13 23 46 31h-269q49 -11 53 -53h1v-362h-172v362v0q1 12 7 22q13 23 46 31h-269q49 -11 53 -53v0v-894v0q-1 -12 -7 -22q-13 -23 -46 -31h269q-49 11 -53 53v0v369h172v-369h-1zM164 274
v-421h-59v896h59v-416h275v416h59v-896h-59v421h-275z" />
    <glyph glyph-name="i" unicode="i" horiz-adv-x="269" 
d="M269 800h-269q49 -11 53 -53h1v-894h-1q-1 -12 -7 -22q-13 -23 -46 -31h269q-43 10 -52 45v910q2 10 8 18q15 20 44 27zM165 -147h-59v896h59v-896z" />
    <glyph glyph-name="j" unicode="j" horiz-adv-x="568" 
d="M352 747v0v0h1v-737q0 -37 -37 -47h-115q-38 10 -38 47v138v0q1 12 7 22q13 23 46 31l-216 -2v-189q0 -93 65 -153q49 -44 110 -56l8 -1l158 1q62 12 110 56q65 60 65 153v746q6 11 14 19q17 20 38 25h-269q49 -11 53 -53zM405 10v728h59v-728q0 -70 -49 -115
q-37 -34 -83 -43h-3h-144q-47 9 -84 43q-49 45 -49 115v138h59v-138q0 -81 82 -99h130q82 18 82 99z" />
    <glyph glyph-name="k" unicode="k" horiz-adv-x="580" 
d="M534 -158q-106 218 -228 470l217 435q6 11 14 21q18 23 39 32h-287q55 -12 55 -41q0 -6 -3 -11l-125 -252v251v0q1 12 7 22q13 23 46 31h-269q49 -11 53 -53v0v-905q-7 -10 -15 -18q-18 -20 -36 -24h269q-49 11 -53 53l-2 271l131 -272q4 -6 4 -14q0 -28 -57 -38h286
q-11 5 -19 12q-20 14 -27 30zM404 -147l-189 392l-51 -101v-291h-59v896h59v-473l235 470h66l-217 -434l223 -459h-67z" />
    <glyph glyph-name="l" unicode="l" horiz-adv-x="470" 
d="M0 -200l470 1l-1 216q-11 -50 -53 -53v-1h-199v785q1 10 7 19q12 21 43 33h-265q49 -11 53 -52l-2 -895q-1 -12 -7 -22q-13 -23 -46 -31zM107 749h59v-837h252v-59h-311v896z" />
    <glyph glyph-name="m" unicode="m" horiz-adv-x="641" 
d="M588 747q1 12 7 22q13 23 46 31h-275q59 -11 53 -53h1l-101 -381l-101 381h1q-7 40 53 53h-272q46 -10 52 -45v-912q-7 -11 -14 -19q-19 -20 -38 -24h640q-49 11 -53 53v0v894h1zM253 -195q-38 17 -38 48v0v274l73 -274h-1q2 -5 2 -10q0 -24 -36 -38zM424 -147v0
q0 -31 -38 -47q-37 14 -37 36q0 5 2 11v0l73 274v-274zM535 -147h-59v670q-27 -103 -128 -481l-29 -107l-156 588v-670h-59v896h60l156 -585l154 585h61v-896z" />
    <glyph glyph-name="n" unicode="n" horiz-adv-x="528" 
d="M475 746q2 12 7 22q13 23 46 31h-268q46 -11 53 -49v-325l-109 375l-204 -1q49 -11 53 -53h1v-893h-1q-1 -12 -7 -22q-13 -23 -46 -31h267q-42 10 -51 41v337l110 -377l201 -1q-43 10 -52 46v900v0zM423 -147h-58l-201 687v-687h-59v895h60l199 -687v687h59v-895z" />
    <glyph glyph-name="o" unicode="o" horiz-adv-x="518" 
d="M324 689h-130q-83 -18 -83 -99v-580q0 -81 83 -99h130q82 18 82 99v580q0 81 -82 99zM355 10q0 -37 -38 -47h-116q-38 10 -38 47v580q0 37 38 47h116q38 -10 38 -47v-580zM342 -199q62 12 111 56q65 60 65 153v580q0 93 -65 153q-49 44 -111 56l-7 1l-159 -1
q-62 -12 -111 -56q-65 -60 -65 -153v-580q0 -93 65 -153q49 -44 111 -56l7 -1zM330 -148h-145q-47 9 -84 43q-49 45 -49 115v580q0 70 49 115q37 34 84 43h3h145q46 -9 83 -43q50 -45 50 -115v-580q0 -70 -50 -115q-37 -34 -83 -43h-3z" />
    <glyph glyph-name="p" unicode="p" horiz-adv-x="514" 
d="M332 225l7 1q62 11 110 56q65 59 65 152v155q0 93 -65 152q-48 45 -110 56l-4 1l-335 2q49 -11 53 -53h1v-894h-1q-1 -12 -7 -22q-13 -23 -46 -31h270q-49 11 -53 53v0v372h115zM165 276v-423h-59v896l224 -3q47 -8 83 -42q50 -45 50 -115v-155q0 -70 -50 -115
q-37 -34 -83 -42l-3 -1h-162zM403 434v155q0 81 -82 99h-156v-352h156q82 17 82 98zM352 434q0 -37 -38 -47h-97v249h97q38 -10 38 -47v-155z" />
    <glyph glyph-name="q" unicode="q" horiz-adv-x="566" 
d="M323 690h-130q-82 -18 -82 -99v-580q0 -81 82 -99h130q46 10 68 46l-98 137l74 -2l39 -54v552q0 81 -83 99zM354 138l-180 -1q25 -6 43 -25l105 -146l-6 -2h-115q-38 10 -38 47v580q0 37 38 47h115q38 -10 38 -47v-453zM371 -200h294q-30 7 -47 30h-1l-103 147q3 18 3 34
v580q0 93 -65 152q-49 45 -111 57h-2h-164q-61 -12 -110 -56q-65 -60 -65 -153v-580q0 -93 65 -152q48 -45 110 -57h3l5 -1l158 1q39 7 76 31l1 -2q-4 -7 -11 -12q-15 -14 -36 -19zM332 -147h-3h-144q-47 9 -84 43q-49 45 -49 115v580q0 70 49 115q37 34 84 43h2h145
q47 -9 84 -43q49 -45 49 -115v-580q0 -23 -6 -46l79 -116h-69l-42 59q-38 -44 -95 -55z" />
    <glyph glyph-name="r" unicode="r" horiz-adv-x="569" 
d="M352 -147q-2 -12 -7 -22q-13 -23 -46 -31h270q-49 11 -53 53h-2v325q0 72 -44 128q44 56 44 128v155q0 93 -65 152q-48 45 -110 56l-4 1l-335 2q49 -11 53 -53h1v-902q-2 -10 -8 -18q-15 -20 -44 -27h270q-49 11 -53 53h-2v372h97q38 -10 38 -47v-325v0zM321 276h-156
v-423h-59v896l224 -3q46 -8 83 -42q49 -45 49 -115v-155q0 -82 -65 -128q65 -46 65 -128v-325h-59v325q0 81 -82 98zM403 434v155q0 81 -82 99h-156v-352h156q82 17 82 98zM352 434q0 -37 -38 -47h-97v249h97q38 -10 38 -47v-155z" />
    <glyph glyph-name="s" unicode="s" horiz-adv-x="488" 
d="M33 85l1 -284l278 -1q62 11 111 56q65 60 65 153v157q0 93 -65 153q-49 44 -111 56h-2l-4 1q-87 11 -102 9q-40 9 -40 48v156q0 37 38 47h163v-1q30 -2 53 -15q56 -30 67 -104l1 284l-310 -1q-62 -12 -111 -57q-65 -59 -65 -153v-156q0 -93 65 -153q49 -45 111 -56l2 -1
h4q87 -11 102 -9q41 -10 41 -48v-157q0 -37 -38 -47l-139 2v1q-30 3 -52 15q-55 30 -63 105zM294 -90q83 18 83 99v157q0 50 -38 78q-21 16 -46 21q-2 0 -106 10h-1q-47 9 -85 42q-49 46 -49 116v156q0 71 49 116q38 34 85 42l2 1h246v-60h-240q-82 -18 -82 -99v-156
q0 -50 37 -79q21 -15 46 -20q2 0 106 -10h2q47 -9 84 -43q49 -45 49 -115v-157q0 -70 -49 -115q-38 -35 -84 -43h-3h-219v59h213z" />
    <glyph glyph-name="t" unicode="t" horiz-adv-x="428" 
d="M375 635q12 -1 22 -6q23 -14 31 -47v218h-428l1 -218q11 49 53 53h85v-797q-18 -17 -50 -38h266q-49 11 -53 53v0v782h73zM250 689v-836h-59v836h-139v59h325v-59h-127z" />
    <glyph glyph-name="u" unicode="u" horiz-adv-x="595" 
d="M333 800q49 -11 53 -53v-737q0 -37 -38 -47h-94q-38 10 -38 47v744q3 11 9 19q14 20 44 27h-269q49 -11 53 -53h1v-737q0 -93 65 -153q48 -44 110 -56h2l5 -1h130l7 1q62 12 111 56q64 60 64 153v737h1q0 36 46 51q-2 1 -6 2h-256zM497 10q0 -70 -49 -115
q-37 -34 -84 -43h-3h-123q-47 9 -83 43q-50 45 -50 115v737h60v-737q0 -81 82 -99h108q83 18 83 99v737h59v-737z" />
    <glyph glyph-name="v" unicode="v" horiz-adv-x="671" 
d="M450 752l-120 -526l-116 521q1 12 7 22q13 23 46 31h-261q-2 -1 -6 -2q35 -12 44 -37l203 -908v0q-1 -12 -7 -22q-13 -23 -46 -31h270q-49 11 -53 52l205 895h2q1 12 7 22q13 23 46 31h-273q45 -10 52 -48zM563 748l-205 -896h-58l-200 896l59 1l170 -757l174 757z" />
    <glyph glyph-name="w" unicode="w" horiz-adv-x="921" 
d="M701 747h3l-72 -533l-165 494l-173 -504l-76 543h2q2 12 7 22q13 23 46 31h-273q49 -11 53 -53h1l125 -894h-2q-1 -12 -7 -22q-13 -23 -46 -31h270q-44 10 -52 43l123 358l118 -352q-2 -11 -8 -20q-14 -22 -45 -29h270q-47 11 -52 51l120 896v0q1 12 7 22q13 23 46 31
h-273q49 -11 53 -53zM816 749l-120 -896h-60l-170 509l-175 -509h-60l-125 895l59 1l108 -767l193 565l188 -561l102 763h60z" />
    <glyph glyph-name="x" unicode="x" horiz-adv-x="635" 
d="M588 -170l-184 472l178 458l2 1q17 18 51 39h-286q49 -11 53 -53h1l-86 -222l-86 222h2q1 12 6 22q13 23 46 31h-285q29 -7 46 -29l1 -1l183 -471l-177 -460v0q-16 -18 -51 -39h281q-49 11 -53 53l87 224l88 -225q-2 -12 -7 -22q-14 -23 -46 -30h283q-31 7 -47 30z
M459 -146l-142 366l-142 -366h-61l172 445l-176 450h65l143 -367l141 367h63l-173 -447l173 -448h-63z" />
    <glyph glyph-name="y" unicode="y" horiz-adv-x="688" 
d="M405 800q49 -11 53 -53h1l-116 -289l-113 290q1 12 7 22q13 23 46 30h-283q31 -7 47 -32l214 -548v-367v0q-1 -12 -7 -22q-13 -23 -46 -31h268q-45 10 -52 44v377l220 553q8 10 44 26h-283zM372 230v-377h-59v377l-203 519h64l169 -433q40 101 172 433h64z" />
    <glyph glyph-name="z" unicode="z" horiz-adv-x="562" 
d="M446 -37v0h-208l324 837h-511v-216q11 49 52 53v1h219l-322 -837l500 -1l-1 216q-11 -49 -53 -53zM448 -148l-373 1l323 836h-295v59h384l-325 -837h286v-59z" />
    <glyph glyph-name="asciitilde" unicode="~" horiz-adv-x="3555" 
d="M3525 575v215h-461q44 -10 51 -43v-902q-6 -10 -13 -18q-18 -20 -38 -25l461 -1v211q-9 -42 -41 -50h-208v256h92q10 -7 18 -15q20 -18 24 -36v261q-9 -39 -38 -49h-96v248h197v0q12 -1 22 -7q23 -13 30 -45zM3225 678v-351h133v-58h-133v-359h249v-58h-253v0h-55v887
h308v-61h-249zM856 789h-265q48 -11 52 -52h1v-885h-1q-1 -12 -7 -21q-13 -24 -45 -31h265q-42 10 -51 45v899q2 10 8 19q15 20 43 26zM754 -148h-59v887h59v-887zM2478 512v279l-262 -1q-61 -11 -109 -55q-65 -59 -65 -151v-576q0 -92 65 -150q48 -45 109 -56h4l258 -1v276
q-21 -107 -96 -115h-141q-38 10 -38 46v576q0 37 38 47h120v-1q29 -3 52 -15q54 -30 65 -103zM2233 682q-81 -18 -81 -98v-576q0 -80 81 -97h194v-59l-202 1q-46 8 -83 41q-48 45 -48 114v576q0 69 48 114q37 33 83 42h2h200v-58h-194zM334 789l-7 2h-5l-270 -1v0h-52
q48 -22 52 -52v-884q-1 -9 -6 -17q-13 -20 -46 -35h52v-1l282 2q61 12 109 56q64 58 64 150v165q0 71 -44 126q44 56 44 127v156q0 92 -64 151q-48 44 -109 55zM456 427q0 -81 -65 -127q65 -45 65 -126v-165q0 -69 -49 -113q-36 -34 -82 -42l-3 -1l-219 -1v887h222
q46 -8 82 -42q49 -45 49 -114v-156zM316 681h-154v-351h154q81 17 81 97v156q0 80 -81 98zM346 427q0 -36 -37 -46h-96v248h96q37 -9 37 -46v-156zM316 271h-154v-359h154q81 17 81 97v165q0 80 -81 97zM346 9q0 -36 -37 -46h-96v257h96q37 -10 37 -46v-165zM2968 -38v0
h-197v776q1 10 7 19q12 20 42 32h-262q49 -11 53 -52l-2 -885q-1 -12 -7 -21q-13 -24 -46 -31l465 1l-1 213q-11 -48 -52 -52zM2970 -148h-308v887h58v-829h250v-58zM1772 789q49 -11 52 -52h1l-114 -287l-112 288q1 12 7 21q13 23 45 30h-278v2l-262 -1q-61 -11 -110 -55
q-64 -59 -64 -151v-576q0 -92 64 -150q49 -45 110 -56h4l258 -1v276q-21 -107 -96 -115h-142q-37 10 -37 46v576q0 37 37 47h121v-1q29 -3 52 -15q54 -30 65 -103v277q33 -9 45 -31l212 -542v-364v0q-2 -12 -7 -21q-13 -24 -46 -31h265q-44 10 -51 43v373l218 548q8 9 43 25
h-280zM1321 682h-193q-81 -18 -81 -98v-576q0 -80 81 -97h193v-59l-201 1q-46 8 -83 41q-49 45 -49 114v576q0 69 49 114q36 33 83 42h2h199v-58zM1740 226v-374h-59v374l-200 513h63l167 -428q42 106 170 428h63z" />
    <glyph glyph-name="uni00A0" unicode="&#xa0;" horiz-adv-x="175" 
 />
    <glyph glyph-name="hungarumlaut" unicode="&#x2dd;" horiz-adv-x="748" 
d="M616 413q-1 2 -1 3q-7 8 -3 21q2 5 9 4q8 -5 8 -19t3 -18q7 -1 12 8q5 11 -4 31q-14 18 -31 14q-12 -10 -13 -21.5t-5 -15.5v0q-1 -2 -3 -2.5t-4 -0.5q-7 -7 -8 -12q2 -15 15 -17q10 0 12 1q7 1 10 6.5t3 13.5v4zM489 493q-4 -1 -4 -2q3 -10 11 -15q3 -1 5 3q0 8 -12 14z
M452 488q-1 0 -3 -1q3 -6 9 -16q2 -1 8 -5.5t11 -3.5q0 -1 -2 8q-7 6 -23 18zM559 462q-4 0 -6 -3q0 -10 17 -20q5 0 5 5q1 4 -16 18zM476 382q-12 7 -13 -3q7 -25 1 -37q5 -13 -2 -24q1 -7 2 -7q12 8 17 32q2 11 4 21q1 13 -9 18zM165 263l1 -1l1 -1zM78 218v0.5v0.5h-1z
M173 252v0l1 -1v0q0 1 -1 1zM120 158q2 0 4 -1v0zM110 171v0v2q0 -3 0 -2zM203 187l1 -1v0v0zM227 86v0v0zM408 75q1 3 0.5 2l-0.5 -1v-1zM361 58h-3h-1h4zM409 80q0 1 1 7l-1 7q-1 0 -1 2l-2 5l-1 2q2 4 2 8q0 14 -14 21h-2l-5 1l-5 2q-1 0 -6 -1h-2q-5 7 -14 7q-3 0 -6 -1
l-2 -1q-1 0 -4 -1l-3 -4h-5q-3 2 -7 2l-7 -1h-2v0q-6 3 -13 3h2h-1h-6v0h-2l-5 3q-1 0 -2 1l-2 1l-2 1q3 3 3 8q-1 20 -23 25v0l-3 1l-12 2v0l-1 1h-2l-4 3q-11 4 -19 0q-1 0 -4 -4l-1 1q-2 1 -5 2h-3q-3 1 -4 0l-5 -1l-1 1l-4 3q-5 2 -8 3q-4 8 -13 12l-1 1l-1 2l-1 1v1v0
l-1 1l-3 3l1 1q6 8 6 15v1l-2 8v2l-1 2l-1 2v1v0v1l-5 8l-4 4v1q-4 8 -11 10q-3 1 -7 5q-2 1 -5 1l-3 1h2q-8 3 -13 3q-2 -1 -3 -1q-17 3 -33 -10l-3 -2q5 2 12 3l-13 -3q-1 0 -4 -3l-3 -5l-3 -3l-2 -6v1q-2 -3 -2 -7v-1q2 4 6 11l-8 -13v-5t1 -4v-2v-7q1 -8 5 -18
q1 -2 4 -7l2 -2l3 -3l4 -4q2 -2 4 -3l3 -2q4 -5 8 -6l-1 -3q3 -8 9 -11l4 -2l-8 6l8 -7h1l2 -1h-1l-1 1q2 -5 5 -8l6 -4q3 -1 8 -4v-0.5v-0.5q5 -8 13 -10v0h1q2 -4 4 -6l1 -1l4 -2t10 -6l7 -5q4 -2 10 -6l9 -1v-1l10 -8q1 -1 3 -1v-1h1v0v0l10 -4h-2l3 -2v0l14 -2q4 0 8 3
q2 -3 7 -9v0v0q1 -1 4 -3l13 -5q2 -1 13 1q4 -5 11 -6q-1 0 -6 2l10 -3q-5 1 -7 2l2 -1q5 -1 11 -2l-4 1v0h11l2 -1l3 -2l9 -1h2l10 1q2 1 3 2q3 -2 6 -3l9 -2h11l2 1h2q3 -1 9 -1v0h1l4 1l10 5l4 2l3 3l4 7l1 4v0zM325 135h-1h-1v0h2zM319 135h-1l-3 -1zM189 190v0v0v0z
M183 188h1h-1v0v0zM134 275h-4h4zM129 275h1h-2h1zM96 243q-1 -1 -1 -2q0 1 1 2zM105 179l4 -1q-1 0 -4 1zM122 161l-1 1v0v1q1 -1 1 -2v0zM117 188l-1 2l-1 2q-3 1 -8 4l-5 5q-1 1 -3 4q-3 8 -6 17q-1 1 1 6q-2 2 -1 7q0 1 1 2l1 1l2.5 5t4.5 7l1 1l3 2q13 9 24 6l2 1
q8 0 9 -3h3q4 -3 10 -6q1 0 2 -1.5l4 -6t3.5 -6l1 -3t1.5 -4t1 -4.5q0 -4 -3.5 -6.5t-6.5 -4.5h-4q-2 1 -3 2q1 1 1 3v1q1 0 1 1v0q3 5 3 6q-1 3 -1 6t-1.5 4.5t-2 2.5t-2.5 3t-6 5q-1 0 -2.5 0.5t-5.5 1.5h-2.5h-5.5q-1 -1 -4 -2v-1q-3 -2 -5 -3.5t-7 -7.5q0 -1 -1 -2.5
t-2 -2.5q-1 -5 -3 -16q0 -1 0.5 -3t7.5 -8q1 -2 3 -2t6.5 2.5t7.5 6.5q1 0 -4 10q-2 4 2 5q5 1 8 -6q0 -1 2.5 -3.5t8.5 -10.5q0 -2 -2 -4h-6q-2 0 -3.5 -1.5t-6 -4t-7.5 -6t-4 -3.5zM114 239q0 -1 -2 -1h1v0zM126 156v0v-1v1zM148 159q-1 0 -3 -1q0 -1 -1 0q-2 1 -8 10
q-1 1 -2.5 1.5t-3 1.5l-3 2t-2.5 4q0 1 1.5 4.5t3.5 6.5q2 0 3 1q2 0 5 -1q1 1 4 1l2 -1h6h5q1 2 1 4q0 3 -2 4h-5q-1 -1 -6 1q-1 3 3 5q1 1 2.5 0.5t2.5 -0.5q2 1 10 1q2 -1 3.5 -2.5t2.5 -4.5l0.5 -2t-0.5 -5q-2 -2 -4 -5t-5 -7l-1 -1q-3 -2 -9 -10q-1 -2 -1 -3q3 -3 1 -4
zM162 130h-1h1v0zM163 129v0l2 -1zM180 138q0 -1 1 -3t1 -3q-1 -2 -2 -2q-3 1 -9 6q-1 2 -1 3q0 2 1 3q-1 0 -2 0.5t-3 2.5h-4h-2q-2 1 -3.5 3t-3.5 6q0 2 2 5v1v1l0.5 1t2.5 2.5t5 7.5q2 2 2.5 3t2 2.5l2.5 2.5q1 2 0 3q-1 2 -2 2v1q2 3 4 3q4 -2 9 -7q1 -1 0 -4
q-8 -7 -16 -20q-1 -1 -1 -3q0 -1 2 -3.5t5 -2.5t10 6q3 3 6 11v2q-2 1 -2 2t1 2t2 1.5t2 0.5q6 -2 11 -6q-1 -2 -4 -6l-10 -14q-3 -3 -7 -10zM214 93v0v0zM210 150l-2.5 -2.5t-2.5 -3.5t-1 -3q-1 -4 -5 -11q-1 0 6 -6q1 -1 1 -2t-1 -2t-4 -2q-4 0 -7 3q-6 4 -8 9q1 2 9 13
q1 0 2 2v1q2 2 3 7q1 0 0 1q1 2 2 3v5l-2 4q1 3 2 3q1 -1 3 -2q2 0 3.5 -0.5t2.5 0.5q2 0 4 1q1 -1 2.5 -1.5t1.5 -1.5q-1 -1 -2 -3q1 -2 2 -3l5 -3q0 -3 -2 -5q-2 0 -4 1q-3 -1 -8 -2zM256 78q1 0 2 -1q-1 1 -2 1zM257 118q-2 -1 -2.5 1.5t-3 6t-4.5 4.5l-1 -1v0
q-1 1 -5 -1q-2 -5 -3.5 -9t-2.5 -8q2 -4 5 -9v-1l-2 -2q3 1 -9 4q-2 1 -3.5 1.5t-3.5 1.5t-7 5q-1 1 0.5 2.5t5 2t8.5 12.5q3 7 5 9v4q1 2 2.5 3.5t3.5 7.5q1 2 1 7q0 1 1 2q-1 4 -2.5 5t-1.5 2t1 2t3.5 -0.5t5.5 -2.5l6 -2q1 -1 4 0q7 0 17 -6q4 -3 4 -7q0 -1 -2 -2l-1 -3
q-1 -2 -3 -2h-1q-1 3 -4 8v-1q0 -1 -1 -2l1 3v0l-4 2t-3.5 2t-2.5 2q-4 0 -4.5 -2t-2.5 -5.5t-2.5 -5t-1.5 -2.5q1 -3 2.5 -6t3.5 -3.5t6 -0.5q3 1 4 1q2 -1 1 -3v-2q-1 -2 -1.5 -3.5t-2.5 -4.5t-3 -4zM294 93q-6 -5 -8 -5.5t-4.5 -1.5t-4.5 -1q-6 2 -8 3t-3 2q-4 3 -5 11
q-1 1 -2 4q-1 6 1 9t3 5t2 3.5t1.5 2t2.5 1.5l8 4h7q1 0 5 -2l3 -3t4.5 -5t3 -4.5t0.5 -5.5q0 -6 -4 -15q-1 0 -2 -2zM329 60l2 1q-1 -1 -2 -1zM339 102q0 -1 -1 -2v-1q-1 -2 -2 -6.5t0 -9.5q1 -2 0 -3q0 -1 -0.5 -2l-1.5 -3h-1q-1 1 -3 1h-3q-1 0 -3 1t-2 3t1.5 2.5
t1.5 1.5q5 7 4 16q0 1 0.5 4t-0.5 5q-1 3 -4 4q1 0 -5 -1q-1 0 -1.5 -0.5t-2.5 -1.5q-3 -16 -3 -25l1 -4q-1 -4 -5 -3q-3 1 -10 3q-2 1 -1 3q2 1 4 4t2 4v0h1v4.5v3.5q0 3 2 10q1 8 -5 8l-1 1v1q1 1 5 2h3h1q4 0 6 -1l4 -2l3 1h1h1q3 1 5 1q1 -1 2 -1.5l3 -1.5l2 -2
q1 -1 1 -2.5t1 -4.5v-3.5v-2v-1.5zM341 132v0l1 1l1 1v0zM391 79q-2 -1 -3 -2l-1 -1q-2 -1 -7 -2q-2 0 -8 1q-1 0 -2 1q-1 -2 -5 -2q-2 -1 -4 0q-7 0 -11 4v4q0 4 1 11q1 2 1 3l-0.5 2.5l-1.5 7.5v3q-1 2 -3 3.5t-3 3.5t0 3h3q3 1 5 2.5t3.5 2.5t2.5 1h2q0 -2 1 -4t2 -2h7
q2 -1 2 -3v-1q4 4 8 4q2 0 4 -2h3q3 -1 4 -4q1 -2 0 -4q-1 -1 -3 -1h-3q-1 1 -2 3t-5 2l-1 -1q0 -1 1 -3q5 -3 15 -20q1 -2 1 -3t-0.5 -3.5t-2.5 -3.5zM148 182l-3 1h-4q-4 2 -5 -4q0 -2 1 -3.5t3 -2.5q4 -1 9 7q0 2 -1 2zM367 107q0 3 3 6q-2 0 -3.5 -1t-3.5 -2.5t-2.5 -3
t-1.5 -3.5v-5l1 -3q0 -3 1 -11q0 -2 4 -3l2 1h2q0 2 1 2q1 1 5.5 -1.5l4.5 -2.5q2 0 5 3q0 2 -1.5 4.5t-7 6.5t-9.5 13zM286 119q-2 1 -5 3q-4 1 -8.5 -4.5t-3.5 -9.5q1 -2 1.5 -5.5t3 -6l3.5 -3.5q5 -1 11 5q2 2 2 5v1q1 1 1 2v4v2q0 2 -5 7zM381 135v0q1 0 2 -1q-1 1 -2 1
zM268 153v0v0v0zM135 543q-4 3 -6 3.5t-4 0.5q-1 0 -4.5 -1t-5.5 -1q-4 2 -6 2q-3 -3 -8 -6q-1 -1 -1 -4q-3 -7 -3 -26l1 -1h1q3 14 3 2q1 0 2 -3q2 0 7 3l3 -3h2t1 -1q6 0 8 3q1 5 -3 5l-5 -4q0 1 -1 2q4 0 3 5q4 -1 7 3v7q3 0 3 -4q0 -1 -2 -4.5t-1 -4.5q1 -3 4 -7h2
q1 4 3 11q0 2 1 6.5t1 5.5l-0.5 3t-1.5 8zM106 537q2 0 5 -2q-2 -2 -6 -3q-1 2 1 5zM109 518l1 -1v0q-2 -1 -5 1q0 -1 1 3q0 1 -1 1h-1v1t1 1t4 -3l2 1zM112 531v0v1v-1zM120 537v-1v-1h-1q0 1 1 2zM117 519v1v1q1 0 2 -1q-1 -1 -2 -1zM124 530q-4 -3 -6 -3v2q1 0 4 2
q0 2 2 4q1 -1 0.5 -2.5t-0.5 -2.5zM128 537h-1q-1 2 1 2q1 -2 0 -2zM134 551q1 3 2 8q-2 2 -3 1h-8l-1 -1q0 -2 1 -3q5 -5 9 -5zM99 619q-2 0 -3 -2v0q1 0 1 -1h-1v-1l2 -1h12q8 -1 13 1l1 2q-1 1 -2 1l-3 -1q-3 0 -3 3l3 1q-8 1 -6 1q-3 0 -8 -3h-6zM58 584q0 1 -1 0l-1 -5
q-1 -2 -3 -4t-2 -3h3q2 -1 3 -1q2 1 2 4v5q-1 3 -1 4zM67 580q-1 -1 -1 -3t2 -6q2 -1 4 2l-1.5 3.5t-3.5 3.5zM546 579q1 -1 2 -3q1 4 0 7q-2 1 -2 -4zM713 412q0 108 -64 195q0 3 -2.5 11.5t-1.5 12.5q6 -2 7 -1q2 1 2 11q-2 4 -2 13.5t-6 13.5q-16 20 -16 22v0q1 0 4 -2
q3 0 6 4v4q-25 29 -62 39q-20 6 -17 9q3 -1 5 3q1 3 -7 8q-2 1 -5 1q-5 0 -13.5 -3.5t-12.5 -3.5q-6 0 -11 6q-6 0 -14 8q-11 2 -14 10q-9 11 -35 20q-1 -1 -3 -2q5 -7 16 -18q-4 2 -12 9q-16 5 -36 15q-6 -1 -17 3q-7 1 -36 0q-2 -1 -4 -5q3 -1 2 -2h2h-11q-15 -1 -41 -10
q-9 -1 -20 -7q1 2 1 -6q-17 -14 -36 -19q-11 -5 -26 -21q-2 -5 3 -6t5 -2q-9 -3 -25 -16l-4 -8q-40 -23 -71 -56q-9 2 -13 2.5l-4 0.5q-6 0 -18 -1h-7q-4 0 -11 1h-9.5h-4.5q-9 -2 -25 -2q-4 0 -27 -2q-4 -1 -7 -1q-2 1 -3 1q-3 0 -10 -6q-2 -6 -2 -11q0 -3 1 -5
q-1 -3 -1 -7v-7q1 -2 1 -5q0 -2 -1 -6q0 -1 1 -2q-1 -2 -1 -3v-3q1 -4 1 -6q-1 -5 0 -14q1 -10 1 -13q0 -5 -1 -8q1 -13 1 -26q1 -19 6 -24q2 -1 4 -1t5 1q4 1 6 0h14q9 0 13 -1q5 1 12 1q-1 0 -4 -1q-10 -40 -10 -82q0 -60 21 -116h-1q-5 -2 -6 -5.5t-1 -5.5v-1q-1 -2 0 -5
q1 -1 3 -5q1 0 1 -1q4 -6 8 -6t4 -1q4 0 8 4t7 12v2q-2 6 -4 10q-5 4 -12 4l-1 -1h-1q-21 55 -21 115q0 42 11 83h10h1q-10 0 30 2q2 -1 5 -1q5 1 6 0q6 0 16 -3q6 1 9.5 2.5t4 7l1.5 16.5v19q0 4 1.5 12.5t1.5 12.5t-1 6q-2 6 -2 14v23q-1 2 -1 4q0 1 0.5 3t-0.5 3v18
q-1 3 -1 4v1v0q28 28 61 50q-3 -7 -10 -19q-1 -7 5 -10q0 -14 -3 -18q-9 -19 4 -35q0 -3 -1.5 -3.5t-6.5 -32.5q0 -5 -3 -14v-12q-19 0 -21.5 -3t-10.5 -8q0 -5 -4 -14q-1 -27 2 -35q-1 -7 3 -15q7 -12 8 -13q4 -5 4 -14q0 -3 -1 -10.5t-1 -11.5q0 -7 2.5 -13t16.5 -42
q17 -23 50 -68q1 -11 4 -41q2 -9 7 -17q11 -20 35 -31q18 -9 42 -9q14 0 28 4l7 2q31 14 50 38q4 2 7 4q11 6 36 14q4 3 23 7q16 3 33 16t32 25q5 6 8 12q11 -18 32 -18q5 0 10 2l-1 -1q-2 -7 -5.5 -14.5t-5.5 -12.5q-9 -13 -21 -25q-28 -30 -65 -51q34 7 66 25
q-24 -61 -52 -94q-10 -12 -43.5 -33.5t-43.5 -33.5q76 33 87 40q14 12 29 24q-14 -47 -15 -49q-2 -5 -14 -19q-31 -22 -81 -62q77 30 105 66q9 11 47 92q4 -14 4 -24q0 -19 -15 -44q18 19 51 57q14 17 24 48q17 -31 42 -55q-23 43 -30 86q57 84 57 186zM142 556q0 -3 -1 -8
v-5q0 -3 -1 -6q1 -10 -1 -30q-2 -2 -3.5 -5t-4.5 -4q-7 0 -20.5 1.5t-20.5 1.5h-7q-5 -2 -14 -2q-11 1 -14 0q-4 0 -9 2q-3 -1 -9 1q-1 0 -9 1q-2 0 -8 -1.5t-8 -1.5q0 2 -1 11q0 3 1 5h1l1 -2q4 -11 7 -11q1 1 4 3v6q1 4 1 6q0 3 -1 5.5t-4 14.5q0 1 0.5 1.5t-0.5 1.5
q1 0 3 -1q1 -5 2.5 -12t1.5 -18q1 -2 3 -4q2 1 3 2t2 3q-1 10 -4 33q-2 7 -3 13q-1 3 -2 8l-1 9q-1 3 -1 10v10v12v10q0 6 1 11q-3 4 -5 4t-10 -4q0 -2 -1 -6v-7q0 -3 1 -6q0 -3 -1 -11v-11l1 -10q0 -2 1 -7q0 -4 -2 -6q0 -6 1.5 -13t2.5 -16l1 -6q0 -3 -3 -5q-1 0 -2 3
q0 20 -3 33q0 4 -1 12.5t-1 12.5q-1 6 -0.5 16t0.5 16q0 5 4 14v5q3 0 8 2q2 0 15 1q1 2 5 1h5q1 -1 1 -2t-1 -2h-2q-3 1 -7 -5q0 -4 -1.5 -11t-1.5 -10v-17q-3 -2 -3 -3q2 -2 2.5 -4.5t1.5 -7t1 -6.5v-2q0 4 3 -18q2 -3 3 -10l1 -8q2 -4 3 -11t1 -8t1 -2q1 4 4 9q-1 0 5 -3
l3 2q2 2 5 0q1 -1 3 -2q0 -2 -2 -4h-2q-4 0 -7 3q-2 -1 -3 -5l1 -5q0 -2 2 -3q5 0 26 1q10 0 14 5v3q0 3 -1 10t-1 11v3q1 1 1 4v5q1 2 3 3q7 1 10 1.5t5 3.5q0 3 -2 8q-2 1 -4 1t-4 -1q-3 1 -9 0q-7 -1 -9 -1q-3 0 -6 2l-1 -1h-2q-1 0 -1 -2t-3 -2q-1 0 -1.5 1t-2.5 3h-5
q-3 0 -4 -2q0 -1 0.5 -2t-0.5 -2q-1 1 -3 4q-5 2 -5.5 4.5t-3.5 6.5q1 -1 7 13q3 6 3 8l-4 -3q0 1 -1 1q-1 -1 -3 -1q-4 0 -2 6l3 2t3 4l1 1q2 -7 5 -6q0 4 1 9t2 6l6 1q-1 -2 -2 -7q0 -1 -2 -5v-5h3q2 1 3 2q2 5 7 10q0 -2 -0.5 -5.5t0.5 -5.5q5 0 6 -3q0 -2 -1 -2
q-9 -1 -9 -5l2.5 -4t5.5 -10q2 -2 4 -2l2.5 2t3.5 1v-4q-1 0 -2 -1q1 -2 4 -1h6q1 0 3 1h3h10.5h4.5q3 0 9 -1t9 -1h3q1 1 1.5 4.5l0.5 3.5l-1 2t-0.5 4t0.5 3q0 4 -2 14q-2 1 -4 1t-6 -1t-7 0v-1q-1 -2 -1 -4q2 -13 1 -15h-2q-1 3 -2 7.5t-3 6.5q-3 0 -8 -2l-2 1
q-1 0 -2 -1q0 -11 -2 -14q-4 1 -4 8v11q-1 0 -3 3q1 3 9 5q3 0 9 2h1q1 0 3 -1q1 0 3 2q2 0 6 -2h12q1 2 1 4q0 1 -1 4v4.5v2.5l-1 1q1 5 -1 14q-1 1 -4 2h-4q-6 1 -24 -1q-4 1 -11 1t-16 -1h-3q-2 0 -4 1q-5 -1 -8.5 -1t-6 -0.5t-3.5 -4.5l-1 -4q0 -3 9 -3q1 1 3 2l6 -1.5
t8 -1.5q0 -2 -2 -3h-14q-7 0 -10.5 -5.5t-7.5 -20.5v-3q-1 -3 -1 -4q0 -2 1 -3q-1 -3 0 -3h-1q-2 0 -2 2l-1 5q0 6 2 15q1 5 3 16q3 4 3 12q0 4 -1 9l1 1h9l8 -1q4 0 7 0.5t9 2.5q8 -2 22 -1h22h2t3.5 -1t3.5 -1t2 1q3 0 7 -2q1 -2 4 -5v-16q0 -10 1 -17q0 -19 -2 -43z
M14 595v9q0 3 2 8q1 0 1 -2v-3q2 -6 3 -22q1 -2 1 -4q0 -5 -2 -5q-2 1 -3 3q-1 -7 -2 16zM45 539q0 3 2 5q1 0 3 -8v-3v-3q0 -2 -2 -2q-1 0 -2 2v5q-1 3 -1 4zM70 538q-3 2 -7 3h-4q-2 0 -2.5 2.5t-1.5 6.5q0 2 1 2q0 -4 3 -6q4 0 11 2q2 -3 2 -5t-2 -5zM76 515q-1 -1 -3 -2
q-2 0 -2 1q-1 3 1 5q4 0 4 -4zM82 535q0 3 1 5q1 0 2 -3q0 -2 -1 -3q-1 0 -2 1zM84 592q0 2 1 4q1 -1 1 -2q-1 -1 -1 -2h-1zM129 626q1 -1 1 -2t-1 -3l2 -4q0 -3 -0.5 -4.5t-2.5 -2.5l-4 -1q-2 0 -6 -0.5t-10 -1.5q-13 0 -21 -5v3q0 4 3 16q3 6 6.5 6.5t7.5 1.5q2 0 4 -0.5
t3 -1.5q6 -1 18 -1zM126 629q0 1 1 2q1 0 2 -1q0 -1 -2 -2zM641 636q-4 4 -5 8q5 -7 5 -8zM538 665q-4 7 -18 11q1 3 6 3t6 3.5t8 4.5q7 -3 14.5 -6.5t14.5 -0.5q2 4 -3 8q-8 3 -25 8q-4 3 -7 3q14 0 42 -5q2 2 2 4q-3 2 -7 6l-6 3q12 -3 33 -14q5 -4 9 1q3 5 -3 9l-2 3
q3 1 16 -9q1 0 4 -9q-11 2 -12 0q2 -4 2 -12q-3 0 -7 2.5t-5 2.5q-3 0 -5 -3q0 -3 2 -6l-1 -1l1 -1q-9 1 -10 -3q2 -7 0 -22q-2 1 -5 8t-9 7q-4 -1 -5 -7q1 -9 1 -10q-6 6 -10 5q-6 -4 -4 -14l3 -14v1q-5 7 -11 18q-4 8 -15 9q-4 9 -15 16q2 1 8 -1.5t8 -2.5q4 0 5 5z
M618 594l-1 -2l-1 2h2zM396 789q11 -2 30 -12q-2 1 -21 7q-7 0 -19 5h10zM355 780q7 1 8 1q2 -1 5 -4q-3 0 -7 1.5t-6 1.5q-1 -1 -3 0h3zM343 780q-3 -1 -3 -0.5t3 0.5zM337 779l-5 -1q0 2 5 1zM327 780v-3q-6 0 -7 1q1 2 7 2zM295 751q12 10 16 10l-3 -4q-5 -5 -1 -9t8 0
q8 7 33 15l-6 -2q-3 -2 -7 -7q0 -2 2 -4q9 3 42 8q-3 0 -7 -4q-8 -3 -25 -9q-4 -4 -2 -9q7 -2 14.5 2t14.5 8q3 0 8 -4q1 -3 6 -3t6 -3q-13 -5 -17 -13q2 -4 5 -4t8.5 3t7.5 3q-10 -8 -14 -17q-11 -3 -14.5 -10t-8.5 -20l-1 -1l2 15q2 10 -5 13q-3 1 -10 -5q0 1 1 10
q-1 6 -6 7q-5 -1 -7.5 -8t-5.5 -9q0 8 -1 23q-1 3 -10 2v0q1 1 0 1q2 4 1 7q-2 3 -4 3t-6 -3t-6 -3q2 4 1 12q-1 2 -12 -1q-1 4 3 10zM211 625l1 3l-1 -3v0zM184 472q-1 -1 -5 3q-8 32 -6 50q3 4 5 4q-2 -2 -2 -7q1 -1 6 -8t10 -6q1 -3 3 -7t2 -7q0 -5 -6 -13t-7 -9z
M398 259q-12 -5 -36 -14q-2 1 -9 -1q-10 9 -10 33q7 6 5 12q-5 4 -18 2.5t-19 1.5q-2 1 -7.5 5.5t-8.5 4.5t-6 -3q-3 -4 0 -9q3 -3 7 -6q-3 -24 -10 -24q-3 0 -6 5q-29 4 -29 44q0 23 9 51q3 -6 10 -25q15 -25 39 -30q27 -12 42 -3q15 4 40 27q4 1 9 4q9 -30 9 -49
q1 -3 1 -6q0 -9 -12 -20zM280 356q9 -2 17 -6q14 -3 30 -5.5t28 -0.5q6 -3 16 -1q13 3 15 3v-1q-1 -3 -2 -2q-4 -7 -11.5 -9.5t-14.5 -4.5q-32 -6 -66 10q-6 5 -12 17zM429 359q1 1 2 1q6 0 6 -5q0 -9 -6 -25q0 -2 -1 -3q1 24 -1 32zM583 313q-19 0 -27 20v0l3 6v0l2 -6v0h1
q4 -9 18 -14h3q20 0 22 22q0 23 -22 23h-1q-3 3 1 6q13 0 22 -12q5 -6 6 -17q0 -28 -28 -28zM583 336q1 -5 4 -8q-3 -1 -4 -1q-9 0 -13 8l-3 4q1 1 2 1q6 -4 14 -4zM581 355q1 1 2 1t3 -1h-5zM590 339l6 1q0 -1 1 -1q-1 -4 -3 -7q-2 4 -4 7zM588 378q-10 0 -10 -11v-2
q-1 -6 3 -8v0q-5 1 -11.5 9t-12.5 7q-2 0 -7 -9q-2 -25 -19 -42q-11 -13 -38 -27q-10 -7 -55 -22q-2 -3 -9 -4q4 26 5 45q8 1 12 8.5t8 13.5q0 -2 2 22q2 12 -7 18q-12 -3 -35 -1q-15 7 -38 37q-12 5 -13 4q-16 -17 -38 -7q-5 1 -13.5 8t-15.5 5l-21 -17q-26 -7 -33 -1
q-5 2 -8 -1.5t-5 -6.5q-1 -4 1 -10l2 -14q-3 0 -6 9q3 4 -7 21q-1 1 -7 -1q-2 -3 -2 -7t4.5 -11.5t5 -12t6.5 -9.5q2 -1 7 8q3 -7 11 -18q-1 -16 0 -37q-10 25 -17 34q-6 6 -22 33q-1 2 -5 29q-4 18 -1 29q1 11 14 43q2 3 3 6q0 -3 3 -6q13 -8 23 -3q7 0 13.5 -5.5
t12.5 -10.5q2 0 7 -5t10 -4q6 4 1 8q-4 4 -14 11q0 1 -1.5 1.5t-1.5 1.5q14 -1 22 -8h3q1 3 -3 12q-2 -2 6 -2q14 -13 13 -21l1 -2q32 0 35 -1q-3 0 7 4q5 -8 10 -6q3 3 3 5q0 3 -7 7.5t-8 6.5q-9 9 -62 56q2 1 4.5 -2t5 -4t50.5 -41q7 -5 16 -18q1 -1 5 -4.5t6 -3.5t3 2
q-2 6 -10 14q-14 12 -14 13q-6 4 -55 49q5 2 10.5 -2t10.5 -8q21 -19 34.5 -29.5t35.5 -36.5q10 -13 21 -22q3 -2 6 3q1 5 -7 12t-9 10q-2 0 24 -7q1 2 4 5q22 -8 25 -8t13 -5t15 -5q7 0 12 5q-1 0 4 -5q1 -1 2 -2.5t2 -2t2.5 -0.5t2.5 -1q3 0 11 2.5t12 8.5q0 7 -5 9
q3 -1 -12 -3q-2 0 -7 -1.5t-8 -0.5q2 12 2 11q-3 7 -8 5q-7 -11 -15 -8q-5 5 -5 4q-7 0 -15 8t-12 10q-15 12 -43 36q0 1 3 3q9 -1 17 -10q13 -13 14 -13.5t6 -4.5q3 -2 5 1q-9 9 -25 26q5 0 11 5l6 -7l28 -30l15 -18q4 -1 5 2q0 2 -7 14q-10 9 -29 28q-3 11 9 17l14 4
q7 0 11 -4t8 -9q3 0 9.5 -11t10.5 -10q3 4 2 9q-6 6 -6 15q0 4 1.5 12t1.5 11q0 9 -9 11q-2 3 -27.5 2t-28.5 1q-21 -9 -32 -17q-3 -6 -12 -10.5t-11 -6.5q-5 5 -18 8q0 -11 29 -28q3 -4 11 -12l-11 5q-6 7 -21 17q-8 9 -26 18q-1 -4 10 -14q15 -11 42 -37l1 -2q-6 -1 -11 4
l-10 10q-18 15 -53 44q-2 0 -7.5 5t-10.5 5q0 -4 8 -14q35 -22 67 -56q-2 -4 -9 -1q-9 11 -32 27q-13 12 -41 34q-3 6 -18.5 7.5t-19.5 6.5q-9 5 -12 5q-3 -3 -24 0q-4 -4 -15 -12q-2 -4 -6.5 -6.5t-4.5 -4.5q0 -3 3 -8q11 -7 31 -24v-1h1q-4 -2 -11 1.5t-11 1.5q1 -3 2 -7
q-4 0 -10 -3q0 -4 -6 30q1 23 9 57q3 12 8 36q6 14 11 28q12 24 29 39l4 1l9 2l9 -1l9 -4l10 2l10 -2l5 -9h12l6 -8l6 -8l-3 1l4 -10l-4 -10l1 -10l4 4l4 7l7 5l6 5l6 9l8 5l9 4l9 3l11 -4l9 4h9l9 1l10 2l10 -2l10 4l9 -5h11h4q9 -5 17 -11v-1l7 -6l5 -7l8 -6l2 -2
q19 -24 19 -53h1q3 -3 1 -9q0 1 -2 2q0 -4 -2 -13q4 1 15 -9h-2l-9 3q-4 -4 -4 -7t7.5 -9t7.5 -9h-7q-4 -3 -4 -6q0 -5 8.5 -10t9.5 -8q-3 3 -10 0q-4 -4 -4 -7q0 -4 8 -9.5t8 -9.5l-1 1q-4 4 -9 -2q-2 -4 2.5 -7t7.5 -6q4 -8 15 -13q5 1 2 8q3 -1 7 -1q5 1 5 10q-2 -1 5 -1
q16 9 38 -1q18 -13 21 -38q2 -15 -5 -32q-6 2 -11 2t-6.5 -2t-2 -3t-2.5 -8q0 -9 9 -10q-1 0 -1 -1q-10 7 -21 7q-5 0 -11 -13v-3q-10 9 -24 9zM244 383q-2 -4 -3 -10v0q0 9 1 10l2 1v-1zM301 489q6 -6 20 -13l2 3l-19 20q-9 6 -24 21q1 0 4 -2q22 -15 59 -52q-4 0 -11 2
q-7 1 -11 0l-8 8q-19 13 -29 24q-13 9 -37 28q-2 0 -6 4q-4 3 -7 0q0 -1 1 -4q9 -7 25 -23q3 0 16 -12q-3 0 -6.5 2.5t-5.5 3.5q-15 9 -41 31l1 2q4 4 10 4l23 -11q15 -12 44 -36zM263 532q1 0 16 -11q-6 3 -16 11zM618 319q-3 0 -5 1q1 2 3 5h2q22 0 22 23q0 22 -22 22h-1
q-3 3 1 6q28 0 28 -28q0 -29 -28 -29zM616 357h4q3 -8 11 -12q0 -3 -2 -5q-9 4 -10 8.5t-3 8.5zM654 347q4 2 9 10q0 2 1 4v4q0 23 -23 23v0q-2 1 -1 4v0l1 2q29 0 29 -29q0 -7 -3 -12.5t-8 -9.5v0q-3 -2 -5 -3v7zM654 371v0q2 -3 2 -6v0zM654 236v1q9 40 6 96q18 11 18 32
q0 13 -8 23q5 7 9 31q0 14 -6 40q-11 20 -32 26q-7 3 -6 10l3 12q0 4 -2.5 9.5t-2.5 8.5l6 16q3 10 -1 17q5 5 4 20t5 20q0 1 1 2q59 -85 59 -188q0 -96 -52 -178q-1 1 -1 2z" />
  </font>
</defs>
</svg>
