<?xml version="1.0" standalone="no"?>
<!DOCTYPE svg PUBLIC "-//W3C//DTD SVG 1.1//EN" "http://www.w3.org/Graphics/SVG/1.1/DTD/svg11.dtd" >
<svg xmlns="http://www.w3.org/2000/svg" xmlns:xlink="http://www.w3.org/1999/xlink" version="1.1">
<metadata>
Created by FontForge 20150102 at Sat Feb 14 15:57:41 2015
 By uniteet7
(c) 2013 Jayde Garrow Fonts. All Rights Reserved
</metadata>
<defs>
<font id="HardSports" horiz-adv-x="965" >
  <font-face 
    font-family="HardSports"
    font-weight="400"
    font-stretch="normal"
    units-per-em="2048"
    panose-1="2 0 5 0 0 0 0 0 0 0"
    ascent="1638"
    descent="-410"
    x-height="980"
    cap-height="1316"
    bbox="-106 -340 1785 1316"
    underline-thickness="150"
    underline-position="-142"
    unicode-range="U+0020-007A"
  />
<missing-glyph horiz-adv-x="0" 
 />
    <glyph glyph-name=".notdef" horiz-adv-x="0" 
 />
    <glyph glyph-name=".null" horiz-adv-x="0" 
 />
    <glyph glyph-name="nonmarkingreturn" horiz-adv-x="508" 
 />
    <glyph glyph-name="space" unicode=" " horiz-adv-x="400" 
 />
    <glyph glyph-name="space" unicode="&#xa0;" horiz-adv-x="400" 
 />
    <glyph glyph-name="exclam" unicode="!" horiz-adv-x="452" 
d="M764 976l-304 -672h-324q212 472 256 564q64 66 156 84q145 24 216 24zM104 224h320l-100 -224h-324v4q97 217 104 220z" />
    <glyph glyph-name="ampersand" unicode="&#x26;" 
d="M445 980h200q442 0 500 -124q11 0 20 -68q0 -112 -132 -308q-99 -96 -248 -96h-208q-86 0 -104 -60q-20 -52 -32 -128q0 -96 96 -136q4 0 4 4q103 232 112 240h320v-4q-63 -133 -136 -300h-260q-302 0 -424 96q-36 50 -36 96q10 133 100 244q50 40 172 40v4
q-120 17 -120 68v20q13 61 132 312q20 42 20 48q162 0 300 -56q-87 -181 -96 -236q0 -40 72 -40h4q89 0 108 68q20 38 32 120q0 129 -184 164q-125 24 -212 24v8z" />
    <glyph glyph-name="comma" unicode="," horiz-adv-x="452" 
d="M104 224h320l-100 -224h-324v4q97 217 104 220zM0 4l324 -3l-106 -225h-324v4q97 217 106 224z" />
    <glyph glyph-name="period" unicode="." horiz-adv-x="452" 
d="M104 224h320l-100 -224h-324v4q97 217 104 220z" />
    <glyph glyph-name="zero" unicode="0" 
d="M893 980h200v-8h-4q-127 0 -284 -44q-84 -35 -116 -124q-215 -478 -228 -520q-11 -28 -20 -88q5 -51 24 -88q-129 -52 -248 -52q-100 45 -100 136q0 86 196 488q89 232 140 232q111 68 440 68zM1065 924q100 -45 100 -136q0 -87 -200 -496q-85 -224 -136 -224
q-111 -68 -440 -68h-200v8h4q127 0 284 44q84 35 116 124q212 472 228 520q11 28 20 88q-5 51 -24 88q129 52 248 52z" />
    <glyph glyph-name="one" unicode="1" horiz-adv-x="452" 
d="M764 976q-21 -43 -440 -976h-324v4l392 864q64 66 156 84q145 24 216 24z" />
    <glyph glyph-name="two" unicode="2" horiz-adv-x="960" 
d="M440 980h200q442 0 500 -124q11 0 20 -68q-13 -150 -144 -320q-97 -84 -236 -84h-208q-86 0 -104 -60l-136 -304q131 19 204 68q21 15 108 216h324q-93 -228 -132 -228q-103 -76 -452 -76h-384v4l224 496q34 61 104 84q94 12 184 12h188q86 0 100 56q23 45 36 132
q0 129 -184 164q-125 24 -212 24v8zM416 928q162 0 300 -56q-88 -195 -88 -200h-324v4q101 223 112 252z" />
    <glyph glyph-name="three" unicode="3" 
d="M445 980h200q442 0 500 -124q11 0 20 -68q0 -83 -184 -464l-120 -272q-162 0 -300 56l124 276h-188q86 196 100 212h180q26 34 56 140q5 41 8 48q0 129 -184 164q-125 24 -212 24v8zM421 928q162 0 300 -56q-80 -184 -92 -196h-320zM141 304h324v-4q-16 -48 -24 -104
q0 -129 184 -164q125 -24 212 -24v-8h-200q-442 0 -500 124q-11 0 -20 68q8 58 24 112z" />
    <glyph glyph-name="four" unicode="4" horiz-adv-x="943" 
d="M931 980h324v-4q-21 -43 -440 -976h-324v4l172 380h-100q-352 0 -352 84v20q0 32 152 356q18 52 112 92q155 40 272 40q-144 -306 -144 -340q0 -40 72 -40h80q12 12 176 384z" />
    <glyph glyph-name="five" unicode="5" 
d="M445 980h200q442 0 500 -124q11 0 20 -68q-8 -58 -24 -112h-324v4q16 48 24 104q0 129 -184 164q-125 24 -212 24v8zM421 928q162 0 300 -56q-87 -181 -96 -236q0 -40 72 -40q352 0 352 -84v-20q0 -31 -212 -492h-260q-302 0 -424 96q-36 50 -36 96q8 58 24 112h324v-4
q-16 -48 -24 -104q0 -96 96 -136q4 0 4 4q116 249 116 280q0 40 -72 40q-352 0 -352 84v12q0 47 128 308z" />
    <glyph glyph-name="six" unicode="6" 
d="M445 980h200q442 0 500 -124q11 0 20 -68q-8 -58 -24 -112h-324v4q16 48 24 104q0 129 -184 164q-125 24 -212 24v8zM421 928q162 0 300 -56q-87 -181 -96 -236q0 -40 72 -40q352 0 352 -84v-20q0 -29 -188 -440q-162 0 -300 56q87 181 96 236q0 40 -72 40h-80
q-52 -85 -64 -188q0 -129 184 -164q125 -24 212 -24v-8h-200q-442 0 -500 124q-11 0 -20 68q0 81 144 376z" />
    <glyph glyph-name="seven" unicode="7" horiz-adv-x="967" 
d="M895 980h384v-4q-21 -43 -440 -976h-324v4l432 956q-131 -19 -204 -68q-30 -29 -108 -220h-324v4q93 228 132 228q103 76 452 76z" />
    <glyph glyph-name="eight" unicode="8" 
d="M445 980h200q442 0 500 -124q11 0 20 -68q-6 -96 -84 -236q-43 -72 -200 -72v-4q120 -17 120 -68v-20q0 -32 -128 -308q-12 -20 -12 -28q-162 0 -300 56q87 181 96 236q0 40 -72 40h-8q-86 0 -104 -60q-20 -52 -32 -128q0 -129 184 -164q125 -24 212 -24v-8h-200
q-442 0 -500 124q-11 0 -20 68q10 133 100 244q50 40 172 40v4q-120 17 -120 68v20q13 61 132 312q20 42 20 48q162 0 300 -56q-87 -181 -96 -236q0 -40 72 -40h4q89 0 108 68q20 38 32 120q0 129 -184 164q-125 24 -212 24v8z" />
    <glyph glyph-name="nine" unicode="9" 
d="M445 980h200q442 0 500 -124q11 0 20 -68q0 -85 -204 -508l-100 -228q-162 0 -300 56q87 181 96 236q0 40 -72 40q-352 0 -352 84v32q20 55 188 428q162 0 300 -56q-87 -181 -96 -236q0 -40 72 -40h4q89 0 108 68q20 38 32 120q0 129 -184 164q-125 24 -212 24v8z
M141 304h324v-4q-16 -48 -24 -104q0 -129 184 -164q125 -24 212 -24v-8h-200q-442 0 -500 124q-11 0 -20 68q8 58 24 112z" />
    <glyph glyph-name="question" unicode="?" horiz-adv-x="960" 
d="M888 980h384v-4q-167 -376 -224 -472q-99 -120 -268 -120h-208q-86 0 -104 -60q-3 -20 -12 -20h-320q92 229 144 260q58 32 232 32h188q89 0 104 64l136 300q-131 -19 -204 -68q-30 -29 -108 -220h-324v4q93 228 132 228q103 76 452 76zM104 224h320l-100 -224h-324v4
q97 217 104 220z" />
    <glyph glyph-name="A" unicode="A" horiz-adv-x="960" 
d="M440 980h200q442 0 500 -124q11 0 20 -68q0 -87 -200 -496q0 -8 -128 -292h-324v4l172 380h-180q-12 -12 -176 -384h-324v4q332 731 416 924q162 0 300 -56l-124 -276h180q28 36 56 140q5 41 8 48q0 129 -184 164q-125 24 -212 24v8z" />
    <glyph glyph-name="B" unicode="B" 
d="M445 980h200q442 0 500 -124q11 0 20 -68q-6 -96 -84 -236q-43 -72 -200 -72v-4q120 -17 120 -68v-20q-15 -65 -140 -336q-162 0 -300 56q87 181 96 236q0 40 -72 40h-80q-26 -34 -56 -140q-5 -41 -8 -48q0 -129 184 -164q125 -24 212 -24v-8h-200q-442 0 -500 124
q-11 0 -20 68q0 83 184 464l120 272q162 0 300 -56l-124 -276h104q89 0 108 68q20 38 32 120q0 129 -184 164q-125 24 -212 24v8z" />
    <glyph glyph-name="C" unicode="C" 
d="M445 980h200q442 0 500 -124q11 0 20 -68q-8 -58 -24 -112h-324v4q16 48 24 104q0 129 -184 164q-125 24 -212 24v8zM421 928q162 0 300 -56q-272 -594 -272 -628q-5 -41 -8 -48q0 -96 96 -136q4 0 4 4q103 232 112 240h320l-136 -304h-200q-442 0 -500 124q-11 0 -20 68
q0 83 184 464z" />
    <glyph glyph-name="D" unicode="D" horiz-adv-x="960" 
d="M440 980h200q442 0 500 -124q11 0 20 -68q0 -87 -200 -496q-85 -224 -136 -224q-111 -68 -440 -68h-384v4q332 731 416 924q162 0 300 -56l-384 -852q186 30 220 92q22 25 200 436q84 166 84 236q0 129 -184 164q-125 24 -212 24v8z" />
    <glyph glyph-name="E" unicode="E" 
d="M445 980h200q442 0 500 -124q11 0 20 -68q-8 -58 -24 -112h-324v4q16 48 24 104q0 129 -184 164q-125 24 -212 24v8zM421 928q162 0 300 -56l-124 -276h188q-86 -196 -100 -212h-180q-26 -34 -56 -140q-5 -41 -8 -48q0 -96 96 -136q4 0 4 4q103 232 112 240h320
l-136 -304h-200q-442 0 -500 124q-11 0 -20 68q0 83 184 464z" />
    <glyph glyph-name="F" unicode="F" horiz-adv-x="960" 
d="M440 980h200q442 0 500 -124q11 0 20 -68q-8 -58 -24 -112h-324v4q16 48 24 104q0 129 -184 164q-125 24 -212 24v8zM416 928q162 0 300 -56l-124 -276h188q-86 -196 -100 -212h-180q-12 -12 -176 -384h-324v4q332 731 416 924z" />
    <glyph glyph-name="G" unicode="G" 
d="M445 980h200q442 0 500 -124q11 0 20 -68q-8 -58 -24 -112h-324v4q16 48 24 104q0 129 -184 164q-125 24 -212 24v8zM421 928q162 0 300 -56q-272 -594 -272 -628q-5 -41 -8 -48q0 -96 96 -136q4 0 4 4l144 320h-96q86 196 100 212h216q148 -16 148 -72v-20
q0 -31 -144 -344q-36 -76 -72 -160h-260q-302 0 -424 96q-36 50 -36 96q0 83 184 464z" />
    <glyph glyph-name="H" unicode="H" horiz-adv-x="960" 
d="M948 980h324v-4q-445 -977 -468 -1048l-12 -68q0 -129 184 -164q125 -24 212 -24v-8h-200q-442 0 -500 124q-11 0 -20 68q0 77 156 404l56 124h-180q-12 -12 -176 -384h-324v4l392 864q64 66 156 84q145 24 216 24l-172 -380h180q12 12 176 384z" />
    <glyph glyph-name="I" unicode="I" horiz-adv-x="450" 
d="M84 1316h200q442 0 500 -124q11 0 20 -68q0 -85 -200 -496l-280 -628h-324v4q445 977 468 1048l12 68q0 129 -184 164q-125 24 -212 24v8z" />
    <glyph glyph-name="J" unicode="J" 
d="M1277 976q-368 -811 -416 -924q-162 0 -300 56q320 718 356 776q122 92 360 92zM141 304h324v-4q-16 -48 -24 -104q0 -129 184 -164q125 -24 212 -24v-8h-200q-442 0 -500 124q-11 0 -20 68q8 58 24 112z" />
    <glyph glyph-name="K" unicode="K" horiz-adv-x="960" 
d="M948 980h324v-4q-161 -361 -204 -436q-48 -60 -192 -60v-4q120 -17 120 -68v-20q0 -30 -164 -388h-324v4q144 306 144 340q0 40 -72 40h-80q-12 -12 -176 -384h-324v4l392 864q64 66 156 84q145 24 216 24l-172 -380h104q88 0 112 72z" />
    <glyph glyph-name="L" unicode="L" 
d="M764 976l-432 -956q131 19 204 68q24 20 108 216h324q-93 -228 -132 -228q-103 -76 -452 -76h-384v4l392 864q64 66 156 84q145 24 216 24z" />
    <glyph glyph-name="M" unicode="M" horiz-adv-x="1468" 
d="M440 980h200q442 0 500 -124q11 0 20 -68q0 -87 -200 -496q0 -8 -128 -292h-324v4q282 615 316 712l12 68q0 129 -184 164q-125 24 -212 24v8zM948 980h200q442 0 500 -124q11 0 20 -68q0 -87 -200 -496q0 -8 -128 -292h-324v4q282 615 316 712l12 68q0 129 -184 164
q-125 24 -212 24v8zM416 928q162 0 300 -56l-392 -872h-324v4q332 731 416 924z" />
    <glyph glyph-name="N" unicode="N" horiz-adv-x="960" 
d="M440 980h200q442 0 500 -124q11 0 20 -68q0 -87 -200 -496q0 -8 -128 -292h-324v4q282 615 316 712l12 68q0 129 -184 164q-125 24 -212 24v8zM416 928q162 0 300 -56l-392 -872h-324v4q332 731 416 924z" />
    <glyph glyph-name="O" unicode="O" 
d="M445 980h200q442 0 500 -124q11 0 20 -68q0 -83 -184 -464l-120 -272q-162 0 -300 56q233 511 268 608l12 68q0 129 -184 164q-125 24 -212 24v8zM421 928q162 0 300 -56q-272 -594 -272 -628q-5 -41 -8 -48q0 -129 184 -164q125 -24 212 -24v-8h-200q-442 0 -500 124
q-11 0 -20 68q0 83 184 464z" />
    <glyph glyph-name="P" unicode="P" horiz-adv-x="960" 
d="M440 980h200q442 0 500 -124q11 0 20 -68q0 -85 -128 -336q-68 -68 -232 -68h-300q-12 -12 -176 -384h-324v4q332 731 416 924q162 0 300 -56l-124 -276h104q89 0 108 68q20 38 32 120q0 129 -184 164q-125 24 -212 24v8z" />
    <glyph glyph-name="Q" unicode="Q" 
d="M445 980h200q442 0 500 -124q11 0 20 -68q0 -83 -184 -464l-120 -272q-162 0 -300 56q233 511 268 608l12 68q0 129 -184 164q-125 24 -212 24v8zM421 928q162 0 300 -56q-272 -594 -272 -628q-5 -41 -8 -48q0 -129 184 -164q125 -24 212 -24v-4q-36 -119 -36 -144
q0 -129 184 -164q125 -24 212 -24v-8h-200q-442 0 -500 124q-11 0 -20 68q2 48 40 148h-4q-127 0 -284 44q-112 51 -112 144q0 83 184 464z" />
    <glyph glyph-name="R" unicode="R" horiz-adv-x="960" 
d="M440 980h200q442 0 500 -124q11 0 20 -68q-6 -96 -84 -236q-43 -72 -200 -72v-4q120 -17 120 -68v-20q0 -30 -164 -388h-324v4q144 306 144 340q0 40 -72 40h-80q-12 -12 -176 -384h-324v4q332 731 416 924q162 0 300 -56l-124 -276h104q89 0 108 68q20 38 32 120
q0 129 -184 164q-125 24 -212 24v8z" />
    <glyph glyph-name="S" unicode="S" 
d="M445 980h200q442 0 500 -124q11 0 20 -68q-8 -58 -24 -112h-324v4q16 48 24 104q0 129 -184 164q-125 24 -212 24v8zM421 928q162 0 300 -56q-87 -181 -96 -236q0 -40 72 -40q352 0 352 -84v-20q0 -29 -188 -440q-162 0 -300 56q87 181 96 236q0 40 -72 40
q-352 0 -352 84v20q0 32 148 348q40 87 40 92zM141 304h324v-4q-16 -48 -24 -104q0 -129 184 -164q125 -24 212 -24v-8h-200q-442 0 -500 124q-11 0 -20 68q8 58 24 112z" />
    <glyph glyph-name="T" unicode="T" horiz-adv-x="919" 
d="M887 980h344v-4q-92 -197 -92 -208h-260l-344 -768h-324v4q331 729 344 764h-248q36 116 100 148q119 64 480 64z" />
    <glyph glyph-name="U" unicode="U" 
d="M953 980h324v-4q-368 -811 -416 -924q-162 0 -300 56zM769 976q-292 -637 -312 -704q-8 -21 -16 -76q0 -129 184 -164q125 -24 212 -24v-8h-200q-442 0 -500 124q-11 0 -20 68q0 80 176 448q80 184 108 232q59 60 140 76q139 28 228 28z" />
    <glyph glyph-name="V" unicode="V" horiz-adv-x="960" 
d="M948 980h324v-4l-392 -864q-81 -112 -496 -112h-384v4l392 864q64 66 156 84q145 24 216 24l-432 -956q131 19 204 68q40 48 144 300q10 14 268 592z" />
    <glyph glyph-name="W" unicode="W" horiz-adv-x="1473" 
d="M1461 980h324v-4q-368 -811 -416 -924q-162 0 -300 56zM769 976q-292 -637 -312 -704q-8 -21 -16 -76q0 -129 184 -164q125 -24 212 -24v-8h-200q-442 0 -500 124q-11 0 -20 68q0 80 176 448q80 184 108 232q59 60 140 76q139 28 228 28zM1277 976q-292 -637 -312 -704
q-8 -21 -16 -76q0 -129 184 -164q125 -24 212 -24v-8h-200q-442 0 -500 124q-11 0 -20 68q0 80 176 448q80 184 108 232q59 60 140 76q139 28 228 28z" />
    <glyph glyph-name="X" unicode="X" horiz-adv-x="960" 
d="M948 980h324v-4q-165 -369 -204 -436q-48 -60 -192 -60v-4q120 -17 120 -68v-20q0 -31 -168 -396q-24 -58 -36 -136q0 -129 184 -164q125 -24 212 -24v-8h-200q-442 0 -500 124q-11 0 -20 68q0 81 176 452l8 40q0 40 -72 40h-8q-86 0 -104 -60l-144 -324h-324v4
q148 322 168 376q56 96 180 96h36v4q-120 17 -120 68v20q17 73 128 300q64 66 156 84q145 24 216 24q-144 -306 -144 -340q0 -40 72 -40h4q87 0 108 64q36 76 144 320z" />
    <glyph glyph-name="Y" unicode="Y" 
d="M953 980h324v-4q-368 -811 -416 -924q-162 0 -300 56l124 276h-100q-352 0 -352 84v20q0 32 152 356q18 52 112 92q155 40 272 40q-144 -306 -144 -340q0 -40 72 -40h80q12 12 176 384zM141 304h324v-4q-16 -48 -24 -104q0 -129 184 -164q125 -24 212 -24v-8h-200
q-442 0 -500 124q-11 0 -20 68q8 58 24 112z" />
    <glyph glyph-name="Z" unicode="Z" horiz-adv-x="960" 
d="M888 980h384v-4q-167 -376 -224 -472q-99 -120 -268 -120h-208q-86 0 -104 -60l-136 -304q131 19 204 68q21 15 108 216h324q-93 -228 -132 -228q-103 -76 -452 -76h-384v4l224 496q34 61 104 84q94 12 184 12h188q89 0 104 64l136 300q-131 -19 -204 -68
q-30 -29 -108 -220h-324v4q93 228 132 228q103 76 452 76z" />
    <glyph glyph-name="a" unicode="a" horiz-adv-x="960" 
d="M440 980h200q442 0 500 -124q11 0 20 -68q0 -87 -200 -496q0 -8 -128 -292h-324v4l172 380h-180q-12 -12 -176 -384h-324v4q332 731 416 924q162 0 300 -56l-124 -276h180q28 36 56 140q5 41 8 48q0 129 -184 164q-125 24 -212 24v8z" />
    <glyph glyph-name="b" unicode="b" 
d="M445 980h200q442 0 500 -124q11 0 20 -68q-6 -96 -84 -236q-43 -72 -200 -72v-4q120 -17 120 -68v-20q-15 -65 -140 -336q-162 0 -300 56q87 181 96 236q0 40 -72 40h-80q-26 -34 -56 -140q-5 -41 -8 -48q0 -129 184 -164q125 -24 212 -24v-8h-200q-442 0 -500 124
q-11 0 -20 68q0 83 184 464l120 272q162 0 300 -56l-124 -276h104q89 0 108 68q20 38 32 120q0 129 -184 164q-125 24 -212 24v8z" />
    <glyph glyph-name="c" unicode="c" 
d="M445 980h200q442 0 500 -124q11 0 20 -68q-8 -58 -24 -112h-324v4q16 48 24 104q0 129 -184 164q-125 24 -212 24v8zM421 928q162 0 300 -56q-272 -594 -272 -628q-5 -41 -8 -48q0 -96 96 -136q4 0 4 4q103 232 112 240h320l-136 -304h-200q-442 0 -500 124q-11 0 -20 68
q0 83 184 464z" />
    <glyph glyph-name="d" unicode="d" horiz-adv-x="960" 
d="M440 980h200q442 0 500 -124q11 0 20 -68q0 -87 -200 -496q-85 -224 -136 -224q-111 -68 -440 -68h-384v4q332 731 416 924q162 0 300 -56l-384 -852q186 30 220 92q22 25 200 436q84 166 84 236q0 129 -184 164q-125 24 -212 24v8z" />
    <glyph glyph-name="e" unicode="e" 
d="M445 980h200q442 0 500 -124q11 0 20 -68q-8 -58 -24 -112h-324v4q16 48 24 104q0 129 -184 164q-125 24 -212 24v8zM421 928q162 0 300 -56l-124 -276h188q-86 -196 -100 -212h-180q-26 -34 -56 -140q-5 -41 -8 -48q0 -96 96 -136q4 0 4 4q103 232 112 240h320
l-136 -304h-200q-442 0 -500 124q-11 0 -20 68q0 83 184 464z" />
    <glyph glyph-name="f" unicode="f" horiz-adv-x="960" 
d="M440 980h200q442 0 500 -124q11 0 20 -68q-8 -58 -24 -112h-324v4q16 48 24 104q0 129 -184 164q-125 24 -212 24v8zM416 928q162 0 300 -56l-124 -276h188q-86 -196 -100 -212h-180q-12 -12 -176 -384h-324v4q332 731 416 924z" />
    <glyph glyph-name="g" unicode="g" 
d="M445 980h200q442 0 500 -124q11 0 20 -68q-8 -58 -24 -112h-324v4q16 48 24 104q0 129 -184 164q-125 24 -212 24v8zM421 928q162 0 300 -56q-272 -594 -272 -628q-5 -41 -8 -48q0 -96 96 -136q4 0 4 4l144 320h-96q86 196 100 212h216q148 -16 148 -72v-20
q0 -31 -144 -344q-36 -76 -72 -160h-260q-302 0 -424 96q-36 50 -36 96q0 83 184 464z" />
    <glyph glyph-name="h" unicode="h" horiz-adv-x="960" 
d="M948 980h324v-4q-445 -977 -468 -1048l-12 -68q0 -129 184 -164q125 -24 212 -24v-8h-200q-442 0 -500 124q-11 0 -20 68q0 77 156 404l56 124h-180q-12 -12 -176 -384h-324v4l392 864q64 66 156 84q145 24 216 24l-172 -380h180q12 12 176 384z" />
    <glyph glyph-name="i" unicode="i" horiz-adv-x="450" 
d="M84 1316h200q442 0 500 -124q11 0 20 -68q0 -85 -200 -496l-280 -628h-324v4q445 977 468 1048l12 68q0 129 -184 164q-125 24 -212 24v8z" />
    <glyph glyph-name="j" unicode="j" 
d="M1277 976q-368 -811 -416 -924q-162 0 -300 56q320 718 356 776q122 92 360 92zM141 304h324v-4q-16 -48 -24 -104q0 -129 184 -164q125 -24 212 -24v-8h-200q-442 0 -500 124q-11 0 -20 68q8 58 24 112z" />
    <glyph glyph-name="k" unicode="k" horiz-adv-x="960" 
d="M948 980h324v-4q-161 -361 -204 -436q-48 -60 -192 -60v-4q120 -17 120 -68v-20q0 -30 -164 -388h-324v4q144 306 144 340q0 40 -72 40h-80q-12 -12 -176 -384h-324v4l392 864q64 66 156 84q145 24 216 24l-172 -380h104q88 0 112 72z" />
    <glyph glyph-name="l" unicode="l" 
d="M764 976l-432 -956q131 19 204 68q24 20 108 216h324q-93 -228 -132 -228q-103 -76 -452 -76h-384v4l392 864q64 66 156 84q145 24 216 24z" />
    <glyph glyph-name="m" unicode="m" horiz-adv-x="1468" 
d="M440 980h200q442 0 500 -124q11 0 20 -68q0 -87 -200 -496q0 -8 -128 -292h-324v4q282 615 316 712l12 68q0 129 -184 164q-125 24 -212 24v8zM948 980h200q442 0 500 -124q11 0 20 -68q0 -87 -200 -496q0 -8 -128 -292h-324v4q282 615 316 712l12 68q0 129 -184 164
q-125 24 -212 24v8zM416 928q162 0 300 -56l-392 -872h-324v4q332 731 416 924z" />
    <glyph glyph-name="n" unicode="n" horiz-adv-x="960" 
d="M440 980h200q442 0 500 -124q11 0 20 -68q0 -87 -200 -496q0 -8 -128 -292h-324v4q282 615 316 712l12 68q0 129 -184 164q-125 24 -212 24v8zM416 928q162 0 300 -56l-392 -872h-324v4q332 731 416 924z" />
    <glyph glyph-name="o" unicode="o" 
d="M445 980h200q442 0 500 -124q11 0 20 -68q0 -83 -184 -464l-120 -272q-162 0 -300 56q233 511 268 608l12 68q0 129 -184 164q-125 24 -212 24v8zM421 928q162 0 300 -56q-272 -594 -272 -628q-5 -41 -8 -48q0 -129 184 -164q125 -24 212 -24v-8h-200q-442 0 -500 124
q-11 0 -20 68q0 83 184 464z" />
    <glyph glyph-name="p" unicode="p" horiz-adv-x="960" 
d="M440 980h200q442 0 500 -124q11 0 20 -68q0 -85 -128 -336q-68 -68 -232 -68h-300q-12 -12 -176 -384h-324v4q332 731 416 924q162 0 300 -56l-124 -276h104q89 0 108 68q20 38 32 120q0 129 -184 164q-125 24 -212 24v8z" />
    <glyph glyph-name="q" unicode="q" 
d="M445 980h200q442 0 500 -124q11 0 20 -68q0 -83 -184 -464l-120 -272q-162 0 -300 56q233 511 268 608l12 68q0 129 -184 164q-125 24 -212 24v8zM421 928q162 0 300 -56q-272 -594 -272 -628q-5 -41 -8 -48q0 -129 184 -164q125 -24 212 -24v-4q-36 -119 -36 -144
q0 -129 184 -164q125 -24 212 -24v-8h-200q-442 0 -500 124q-11 0 -20 68q2 48 40 148h-4q-127 0 -284 44q-112 51 -112 144q0 83 184 464z" />
    <glyph glyph-name="r" unicode="r" horiz-adv-x="960" 
d="M440 980h200q442 0 500 -124q11 0 20 -68q-6 -96 -84 -236q-43 -72 -200 -72v-4q120 -17 120 -68v-20q0 -30 -164 -388h-324v4q144 306 144 340q0 40 -72 40h-80q-12 -12 -176 -384h-324v4q332 731 416 924q162 0 300 -56l-124 -276h104q89 0 108 68q20 38 32 120
q0 129 -184 164q-125 24 -212 24v8z" />
    <glyph glyph-name="s" unicode="s" 
d="M445 980h200q442 0 500 -124q11 0 20 -68q-8 -58 -24 -112h-324v4q16 48 24 104q0 129 -184 164q-125 24 -212 24v8zM421 928q162 0 300 -56q-87 -181 -96 -236q0 -40 72 -40q352 0 352 -84v-20q0 -29 -188 -440q-162 0 -300 56q87 181 96 236q0 40 -72 40
q-352 0 -352 84v20q0 32 148 348q40 87 40 92zM141 304h324v-4q-16 -48 -24 -104q0 -129 184 -164q125 -24 212 -24v-8h-200q-442 0 -500 124q-11 0 -20 68q8 58 24 112z" />
    <glyph glyph-name="t" unicode="t" horiz-adv-x="919" 
d="M887 980h344v-4q-92 -197 -92 -208h-260l-344 -768h-324v4q331 729 344 764h-248q36 116 100 148q119 64 480 64z" />
    <glyph glyph-name="u" unicode="u" 
d="M953 980h324v-4q-368 -811 -416 -924q-162 0 -300 56zM769 976q-292 -637 -312 -704q-8 -21 -16 -76q0 -129 184 -164q125 -24 212 -24v-8h-200q-442 0 -500 124q-11 0 -20 68q0 80 176 448q80 184 108 232q59 60 140 76q139 28 228 28z" />
    <glyph glyph-name="v" unicode="v" horiz-adv-x="960" 
d="M948 980h324v-4l-392 -864q-81 -112 -496 -112h-384v4l392 864q64 66 156 84q145 24 216 24l-432 -956q131 19 204 68q40 48 144 300q10 14 268 592z" />
    <glyph glyph-name="w" unicode="w" horiz-adv-x="1473" 
d="M1461 980h324v-4q-368 -811 -416 -924q-162 0 -300 56zM769 976q-292 -637 -312 -704q-8 -21 -16 -76q0 -129 184 -164q125 -24 212 -24v-8h-200q-442 0 -500 124q-11 0 -20 68q0 80 176 448q80 184 108 232q59 60 140 76q139 28 228 28zM1277 976q-292 -637 -312 -704
q-8 -21 -16 -76q0 -129 184 -164q125 -24 212 -24v-8h-200q-442 0 -500 124q-11 0 -20 68q0 80 176 448q80 184 108 232q59 60 140 76q139 28 228 28z" />
    <glyph glyph-name="x" unicode="x" horiz-adv-x="960" 
d="M948 980h324v-4q-165 -369 -204 -436q-48 -60 -192 -60v-4q120 -17 120 -68v-20q0 -31 -168 -396q-24 -58 -36 -136q0 -129 184 -164q125 -24 212 -24v-8h-200q-442 0 -500 124q-11 0 -20 68q0 81 176 452l8 40q0 40 -72 40h-8q-86 0 -104 -60l-144 -324h-324v4
q148 322 168 376q56 96 180 96h36v4q-120 17 -120 68v20q17 73 128 300q64 66 156 84q145 24 216 24q-144 -306 -144 -340q0 -40 72 -40h4q87 0 108 64q36 76 144 320z" />
    <glyph glyph-name="y" unicode="y" 
d="M953 980h324v-4q-368 -811 -416 -924q-162 0 -300 56l124 276h-100q-352 0 -352 84v20q0 32 152 356q18 52 112 92q155 40 272 40q-144 -306 -144 -340q0 -40 72 -40h80q12 12 176 384zM141 304h324v-4q-16 -48 -24 -104q0 -129 184 -164q125 -24 212 -24v-8h-200
q-442 0 -500 124q-11 0 -20 68q8 58 24 112z" />
    <glyph glyph-name="z" unicode="z" horiz-adv-x="960" 
d="M888 980h384v-4q-167 -376 -224 -472q-99 -120 -268 -120h-208q-86 0 -104 -60l-136 -304q131 19 204 68q21 15 108 216h324q-93 -228 -132 -228q-103 -76 -452 -76h-384v4l224 496q34 61 104 84q94 12 184 12h188q89 0 104 64l136 300q-131 -19 -204 -68
q-30 -29 -108 -220h-324v4q93 228 132 228q103 76 452 76z" />
  </font>
</defs>
</svg>
